<svg xmlns="http://www.w3.org/2000/svg" version="1.1" xmlns:xlink="http://www.w3.org/1999/xlink" width="512" height="512" x="0" y="0" viewBox="0 0 512 512" style="enable-background:new 0 0 512 512" xml:space="preserve" class=""><g><path fill="#fff9c0" d="M487.09 62.7C369.3 13.22 286.13 69.46 271.11 80.84a1.471 1.471 0 0 1-2.35-1.26 59.1 59.1 0 0 1 6.24-23.3 1.3 1.3 0 0 0-1.4-1.87C112.86 83.95 125.78 212.97 114.43 209.16c-8.48-2.84-6.99-25.08-5.66-36.34a2.04 2.04 0 0 0-3.55-1.59c-26.88 30.29-42.79 60.64-51.21 88.02L47.99 286c-10.05 64.03 16.59 109.17 16.59 109.17l16.57 7.96h.01s50.51 15.9 120.29-19.45a.651.651 0 0 0-.29-1.23c-6.86-.04-17.62-5.97-26.55-14.99a.763.763 0 0 1 .52-1.3c12.49-.42 89.22-5.91 131.06-77.46a1.466 1.466 0 0 0-1.82-2.1c-5.22 2.15-41.15 6.09-58.91-3.23a1.415 1.415 0 0 1 .2-2.6c16.68-5.43 92.78-14.77 128.26-74.15a.54.54 0 0 0-.55-.81c-4.92.84-24.42 3.79-35.3-.36a.545.545 0 0 1-.3-.72c9.54-21.76 37.86-54.76 67.94-82.77l20.02-17.65c23.84-19.78 46.97-34.65 60.64-36.26a2.772 2.772 0 0 0 2.43-2.77 2.808 2.808 0 0 0-1.71-2.58z" opacity="1" data-original="#fff9c0" class=""></path><path fill="#acf79f" d="M480.31 221.75a.3.3 0 0 1 .17.58c-29.17 13.38-27.48 36.99-26.34 48.47v.08a.8.8 0 0 1-1.48.35c-5.08-10.21-18.66-30.03-46.6-26.84a.305.305 0 0 1-.17-.58c25.18-12.56 25.79-36.82 24.53-48.16v-.08a.788.788 0 0 1 1.47-.37c5.26 10.26 16.68 31.21 48.42 26.55zM445.07 113.72a.221.221 0 0 1 0 .44c-23.06 2.95-26.97 19.63-28.65 27.82a.586.586 0 0 1-.58.43h-.02a.555.555 0 0 1-.52-.45c-.82-5.09-3.12-13.48-9.59-20a31.354 31.354 0 0 0-16.85-8.63.217.217 0 0 1 .01-.43c20.11-3.25 25.76-19.89 27.33-28.01a.578.578 0 0 1 1.12.01c.85 4.93 2.4 12.96 8.41 19.41 4.05 4.33 10.11 7.95 19.34 9.41z" opacity="1" data-original="#acf79f"></path><path fill="#d3cc9b" d="M293.6 74.41a1.3 1.3 0 0 1 1.4 1.87 59.1 59.1 0 0 0-6.24 23.3 1.471 1.471 0 0 0 2.35 1.26c13.611-10.313 83.188-57.464 183.777-29.4a43.367 43.367 0 0 1 11.483-3.39 2.772 2.772 0 0 0 2.43-2.77 2.808 2.808 0 0 0-1.71-2.58c-111.635-46.895-192.163 1.165-213.061 16q9.333-2.393 19.571-4.29zM67.99 306l6.02-26.75c6.918-22.5 18.9-47 37.86-71.824-5.571-6.128-4.276-24.652-3.1-34.606a2.04 2.04 0 0 0-3.55-1.59c-26.88 30.29-42.79 60.64-51.21 88.02L47.99 286c-10.05 64.03 16.59 109.17 16.59 109.17l13.734 6.6A183.436 183.436 0 0 1 67.99 306zM125.22 191.23a2.04 2.04 0 0 1 3.55 1.59c-1.33 11.26-2.82 33.5 5.66 36.34 10.731 3.6-.233-111.537 134.4-149.069a1.471 1.471 0 0 1-.068-.511A59.1 59.1 0 0 1 275 56.28a1.3 1.3 0 0 0-1.4-1.87C144.962 78.05 127.547 165.4 119.9 197.4q2.588-3.086 5.32-6.17z" opacity="1" data-original="#d3cc9b"></path><path fill="#bfb36d" d="M303.16 146.78a4.351 4.351 0 0 1-2.11 3.73C198.5 212.59 123.86 324.83 81.15 403.13c-23.22 42.58-37 75.12-40.68 84.12a7.31 7.31 0 0 1-13.63-5.28 844.423 844.423 0 0 1 37.74-86.8c43.07-85.82 119-201.42 232.43-252.37a4.288 4.288 0 0 1 1.79-.39 4.372 4.372 0 0 1 4.36 4.37z" opacity="1" data-original="#bfb36d"></path><path fill="#acf79f" d="M54.01 259.25c5.27 1.51 11.75 1.6 19.71-1a.218.218 0 0 1 .19.39c-19.19 13.13-15.09 29.78-12.87 37.83a.784.784 0 0 1 .02.14.563.563 0 0 1-.35.51.551.551 0 0 1-.67-.16A39.288 39.288 0 0 0 47.99 286c-6.18-3.5-14.33-5.45-24.5-2.48a.219.219 0 0 1-.19-.39c16.43-12.06 13.9-29.45 11.61-37.39a.784.784 0 0 1-.02-.14.575.575 0 0 1 1.02-.36c3.21 4.27 8.74 11.36 18.1 14.01z" opacity="1" data-original="#acf79f"></path><g fill="#284268"><path d="M71.987 31.768a5.993 5.993 0 0 0 7.354-4.233l2.686-9.975a6 6 0 0 0-11.587-3.12l-2.686 9.974a6 6 0 0 0 4.233 7.354zM69.9 39.51a6 6 0 0 0-7.354 4.233l-2.687 9.974a6 6 0 1 0 11.587 3.121l2.687-9.974A6 6 0 0 0 69.9 39.51zM74.8 36.681a6 6 0 0 0 4.228 7.357l9.961 2.691a6 6 0 1 0 3.129-11.585l-9.958-2.691a6 6 0 0 0-7.36 4.228zM49.768 36.135l9.961 2.69a6 6 0 0 0 3.128-11.585L52.9 24.55a6 6 0 0 0-3.129 11.585zM325.41 358a6 6 0 0 0-7.364 4.216l-2.481 9.134a6 6 0 1 0 11.58 3.146l2.482-9.133A6 6 0 0 0 325.41 358zM318.12 384.83a6 6 0 0 0-7.363 4.217l-2.481 9.134a6 6 0 1 0 11.58 3.146l2.481-9.134a6 6 0 0 0-4.217-7.363zM326.313 389.953l9.2 2.464a6 6 0 0 0 3.1-11.592l-9.2-2.464a6 6 0 1 0-3.1 11.592zM311.589 373.587l-9.2-2.463a6 6 0 1 0-3.1 11.592l9.2 2.463a6 6 0 0 0 3.1-11.592zM482.979 227.779a6.3 6.3 0 0 0-3.543-11.962c-28.125 4.133-37.634-14.432-42.206-23.357a6.8 6.8 0 0 0-8.222-3.284 6.726 6.726 0 0 0-4.555 7.136c1.243 11.157.136 31.466-21.236 42.133a6.3 6.3 0 0 0 3.525 11.9c23.726-2.713 35.592 13.594 40.548 23.555a6.7 6.7 0 0 0 6.019 3.733 6.939 6.939 0 0 0 1.7-.212 6.729 6.729 0 0 0 5.108-7.219c-.99-9.91-3.044-30.535 22.862-42.423zm-34.817 26.352a48.261 48.261 0 0 0-25.506-14.984 48.7 48.7 0 0 0 13.268-26.633 44.052 44.052 0 0 0 25.808 15.037 44.107 44.107 0 0 0-13.57 26.58zM25.169 289.278a25.372 25.372 0 0 1 16.247.285c-7.288 54.66 10.786 94.854 16.422 105.761a848.183 848.183 0 0 0-36.63 84.586 13.309 13.309 0 0 0 24.815 9.617c3.392-8.28 16.344-38.919 38.21-79.443a133.17 133.17 0 0 0 27.681 2.676c22.254 0 54.491-4.6 92.249-23.727a6.652 6.652 0 0 0-2.968-12.584c-2.843-.014-7.621-1.87-12.889-5.389 28.047-3.59 87.437-18.407 123.066-79.327a7.471 7.471 0 0 0-9.272-10.689c-3.5 1.342-22.332 3.491-38.29 1.363 29.294-7.137 85.814-23.426 115.262-72.714a6.542 6.542 0 0 0-6.715-9.8c-7.885 1.352-18.374 2.277-26.15 1.318 10.045-18.427 32.109-44.856 58.844-70.374a33.411 33.411 0 0 1 4.323 12.073 6.52 6.52 0 0 0 6.126 5.49c.12.006.239.01.358.01a6.6 6.6 0 0 0 6.438-5.22c2.2-10.7 6.576-20.911 23.536-23.084h.012a6.217 6.217 0 0 0 .171-12.309 31.45 31.45 0 0 1-10.726-3.524c22.32-17.84 41.408-29.039 51.784-30.261a8.8 8.8 0 0 0 2.341-16.844C383.436 12.646 304.6 51.669 276.266 69.951a51.386 51.386 0 0 1 4.064-10.923 7.3 7.3 0 0 0-7.811-10.517c-55.241 10.151-97.036 33.162-124.224 68.4-22.4 29.022-29.427 58.78-33.628 76.561-.183.774-.37 1.564-.558 2.351-.539-4.845-.582-12.119.618-22.3a8.037 8.037 0 0 0-13.993-6.274c-23.393 26.357-40.314 54.543-50.377 83.871a36.627 36.627 0 0 1-9.648-9.481 6.588 6.588 0 0 0-8.394-1.8 6.521 6.521 0 0 0-3.171 7.56c2.134 7.4 3.75 21.248-9.4 30.9a6.216 6.216 0 0 0 5.425 10.98zm9.749 195.7a1.285 1.285 0 0 1-.613.664 1.213 1.213 0 0 1-1.467-.187 1.19 1.19 0 0 1-.361-1.42C53.446 426.773 130.338 242.1 273.7 161.306 128.435 264.316 44.457 461.694 34.918 484.979zm381.011-359.322a36.162 36.162 0 0 0-11.229-12.32 36.384 36.384 0 0 0 11.622-12.065 33.637 33.637 0 0 0 11.381 12.4 33.616 33.616 0 0 0-11.774 11.985zm-349.1 169.222c-2.906-10.538-3.648-21.623 10.47-31.289a6.216 6.216 0 0 0-5.448-11.039 32.727 32.727 0 0 1-9.9 1.772c8.4-24.171 21.747-47.583 39.839-69.8-.687 17.734 2.854 27.7 10.723 30.336a7.342 7.342 0 0 0 5.968-.541c4.128-2.3 5.3-7.243 7.859-18.084 7.838-33.172 25.94-109.784 139.755-134.2a65.6 65.6 0 0 0-3.332 17.231 7.47 7.47 0 0 0 11.964 6.367c14.589-11.047 91.327-62.677 201.059-20.978-15.91 5.9-35.455 20.175-48.908 30.983a38.837 38.837 0 0 1-3.655-11.75 6.574 6.574 0 0 0-12.919-.12c-1.462 7.557-6.316 20.624-22.407 23.223a6.217 6.217 0 0 0-.17 12.246 27.648 27.648 0 0 1 8.76 3.193c-25.192 24.11-53.9 56.375-64.212 79.9a6.539 6.539 0 0 0 3.655 8.739c7.484 2.854 17.816 2.886 26.33 2.193-30.393 40.72-81.661 52.859-107.232 58.915-4.786 1.133-8.565 2.028-11.229 2.9a7.415 7.415 0 0 0-1.133 13.62c14.272 7.49 38.429 7.3 52.912 5.614-16.646 24.588-39.531 42.809-68.153 54.235a163.5 163.5 0 0 1-52.5 11.632 6.765 6.765 0 0 0-4.581 11.52 69.859 69.859 0 0 0 16.262 12.357c-45.724 19.925-81.511 17.375-96.292 14.931 42.928-77.22 115.521-183.81 213.841-243.333a10.361 10.361 0 0 0-9.6-18.318C184.374 186.809 109.18 296.3 64.792 381.651A177.677 177.677 0 0 1 52.6 297.332a37.23 37.23 0 0 1 2.6 3.171 6.485 6.485 0 0 0 5.252 2.68 6.6 6.6 0 0 0 6.38-8.305zm-24.367-34.615a33.563 33.563 0 0 0 15.764 5.85 33.622 33.622 0 0 0-5.036 16.048 36.1 36.1 0 0 0-15.59-5.852 36.435 36.435 0 0 0 4.862-16.046z" fill="#284268" opacity="1" data-original="#284268" class=""></path></g></g></svg>