<svg xmlns="http://www.w3.org/2000/svg" version="1.1" xmlns:xlink="http://www.w3.org/1999/xlink" x="0" y="0" viewBox="0 0 512 512" style="enable-background:new 0 0 512 512" xml:space="preserve" class=""><g><path fill="#89929a" d="M464.867 447.733H47.133C21.325 447.733 0 426.878 0 400.6V111.4c0-8.284 6.716-15 15-15h482c8.284 0 15 6.716 15 15v289.2c0 25.808-20.855 47.133-47.133 47.133z" opacity="1" data-original="#ffa222" class=""></path><path fill="#727e89" d="M512 400.6V111.4c0-8.284-6.716-15-15-15H256v351.333h208.867c26.278 0 47.133-21.325 47.133-47.133z" opacity="1" data-original="#ff7241" class=""></path><path fill="#a7aaad" d="M256 296.674c-9.102 0-18.204-2.647-26.146-7.942L20.05 148.858A44.912 44.912 0 0 1 0 111.408c0-26.005 21.137-47.141 47.117-47.141h417.765c25.981 0 47.117 21.136 47.117 47.117 0 15.109-7.496 29.109-20.05 37.475L282.147 288.732c-7.942 5.295-17.045 7.942-26.147 7.942z" opacity="1" data-original="#ffd738" class=""></path><path fill="#89929a" d="M491.95 148.858c12.555-8.365 20.05-22.365 20.05-37.475 0-25.981-21.137-47.117-47.117-47.117H256v232.408a47.067 47.067 0 0 0 26.147-7.942z" opacity="1" data-original="#ffa222" class=""></path></g></svg>