<svg xmlns="http://www.w3.org/2000/svg" version="1.1" xmlns:xlink="http://www.w3.org/1999/xlink" width="512" height="512" x="0" y="0" viewBox="0 0 512 512" style="enable-background:new 0 0 512 512" xml:space="preserve" class=""><g transform="translate(0 90)"><path d="M316 157H196c-8.284 0-15-6.716-15-15v-42c0-41.355 33.645-75 75-75s75 33.645 75 75v42c0 8.284-6.716 15-15 15zm-105-30h90v-27c0-24.813-20.187-45-45-45s-45 20.187-45 45v27z" style="" fill="#6d737f" data-original="#6d737f" class=""></path><path d="M256 25v30c24.813 0 45 20.187 45 45v27h-45v30h60c8.284 0 15-6.716 15-15v-42c0-41.355-33.645-75-75-75z" style="" fill="#636578" data-original="#5e5f69" class="" opacity="1"></path><path d="M351 276H161c-8.284 0-15-6.716-15-15V142c0-8.284 6.716-15 15-15h190c8.284 0 15 6.716 15 15v119c0 8.284-6.716 15-15 15z" style="" fill="#9ca4ab" data-original="#ffac2b" class="" opacity="1"></path><path d="M351 127h-95v149h95c8.284 0 15-6.716 15-15V142c0-8.284-6.716-15-15-15z" style="" fill="#89929a" data-original="#ff981e" class="" opacity="1"></path><path d="M281 192c0-8.284-6.716-15-15-15h-20c-8.284 0-15 6.716-15 15 0 6.528 4.178 12.067 10 14.128V212c0 8.284 6.716 15 15 15s15-6.716 15-15v-5.872c5.822-2.061 10-7.6 10-14.128z" style="" fill="#89929a" data-original="#ff981e" class="" opacity="1"></path><path d="M266 177h-10v50c8.284 0 15-6.716 15-15v-5.872c5.822-2.061 10-7.6 10-14.128 0-8.284-6.716-15-15-15z" style="" fill="#758089" data-original="#ff8512" class="" opacity="1"></path></g></svg>