<svg id="Layer_1" data-name="Layer 1" xmlns="http://www.w3.org/2000/svg" xmlns:xlink="http://www.w3.org/1999/xlink" viewBox="0 0 148.9 132.77">
<defs>
<linearGradient id="linear-gradient" x1="60.79" y1="53.24" x2="88.96" y2="95.32" gradientUnits="userSpaceOnUse">
<stop offset="0" stop-color="#276dc9"/>
<stop offset="0.12" stop-color="#266bc5"/>
<stop offset="0.25" stop-color="#2464b8"/>
<stop offset="0.38" stop-color="#1f58a2"/>
<stop offset="0.52" stop-color="#1a4784"/>
<stop offset="0.66" stop-color="#12325d"/>
<stop offset="0.79" stop-color="#09192e"/>
<stop offset="0.91"/>
</linearGradient>
</defs>
<ellipse cx="679.81" cy="548.17" rx="76.54" ry="15.58" transform="translate(-725.92 -274.8) rotate(-15.3)" fill="none" stroke="#fff" stroke-miterlimit="10"/>
<circle cx="74.45" cy="74.55" r="25.32" fill="url(#linear-gradient)"/>
<path d="M675.66,533.15" transform="translate(-605.36 -473.62)" fill="none" stroke="#fff" stroke-miterlimit="10"/>
<path d="M675.7,533.14" transform="translate(-605.36 -473.62)" fill="none" stroke="#fff" stroke-miterlimit="10"/>
<path d="M701.8,527c28.61-5.54,50.08-5.5,51.84,1,2.27,8.3-28.94,24.07-69.72,35.23s-75.67,13.47-77.94,5.17c-1.89-6.92,18.83-18.81,49.59-29.1" transform="translate(-605.36 -473.62)" fill="none" stroke="#fff" stroke-miterlimit="10"/>
<path d="M718.64,540c-21.79,0-20.79,30-20.42,66.38h0C698.09,570,699.32,540,677.53,540c21.79,0,20.56-29.85,20.43-66.38h0C697.59,510,696.85,540,718.64,540" transform="translate(-645.36 -473.62)" fill="#40bfff"/>
</svg>