<svg id="Layer_1" data-name="Layer 1" xmlns="http://www.w3.org/2000/svg" xmlns:xlink="http://www.w3.org/1999/xlink" viewBox="0 0 149.11 142.28">
<defs>
<linearGradient id="linear-gradient" x1="95.67" y1="59.68" x2="54.25" y2="96.26" gradientUnits="userSpaceOnUse">
<stop offset="0" stop-color="#662d91"/>
<stop offset="0.1" stop-color="#612b8a"/>
<stop offset="0.25" stop-color="#542577"/>
<stop offset="0.42" stop-color="#3e1b58"/>
<stop offset="0.61" stop-color="#200e2d"/>
<stop offset="0.78"/>
</linearGradient>
</defs>
<path d="M1501,324.77c-2.91,7.3-38.33.06-79.13-16.17s-71.51-35.32-68.6-42.62c2.26-5.69,24.26-2.56,53.16,6.78,8.2,2.65,16.95,5.8,26,9.38C1473.14,298.38,1503.86,317.46,1501,324.77Z" transform="translate(-1352.53 -212.38)" fill="none" stroke="#fff" stroke-miterlimit="10"/>
<circle cx="75.65" cy="77.36" r="27.63" fill="url(#linear-gradient)"/>
<path d="M1456.28,292.51c28,13.25,47,26.5,44.67,32.27-2.9,7.3-38.33.06-79.13-16.17s-71.51-35.32-68.6-42.62c2.26-5.7,24-2.63,52.93,6.71" transform="translate(-1352.53 -212.38)" fill="none" stroke="#fff" stroke-miterlimit="10"/>
<path d="M1432.35,282.15" transform="translate(-1352.53 -212.38)" fill="none" stroke="#fff" stroke-miterlimit="10"/>
<path d="M1455.63,354.66c-6.2-20.32-7.65-39.64-1.12-56.24l.22-23.06-9.62,10.47,6.72-11.92-15.15,3.58,13.88-6.56-15.41-5,16.6,2-6.81-12.26,9.79,10.9.55-20.56c-4.53-5.19-2.62-18.45.35-33.57,3,15.12,4.76,28.38.22,33.57l.56,20.56,9.78-10.9-6.8,12.26,16.59-2-15.4,5,13.87,6.56-15.15-3.58,6.72,11.92-9.61-10.47.21,23.06C1462,314,1461.51,334.08,1455.63,354.66Z" transform="translate(-1352.53 -212.38)" fill="#bf7dff"/>
</svg>