<svg viewBox="0 0 49.7 44.55" xmlns="http://www.w3.org/2000/svg" xmlns:xlink="http://www.w3.org/1999/xlink" ><defs><linearGradient x1="100%" x2="0%" y1="0%" y2="0%" id="gradient6"><stop offset="0%" stop-color="#2e5bff"></stop><stop offset="100%" stop-color="#75cfff"></stop></linearGradient></defs><path d="M209,355.28c0-3.48,6.39-2.29,10.13-7.15,4.15-5.4,5.79-15.28,8.3-15.28s4,9.1,8.3,14.85c3.66,4.9,10.46,4.67,10.46,7.58s-6.85,3-11,8.2-4.12,13.86-7.62,13.92-4-9.48-8.23-14.59C215.31,357.86,209,358.76,209,355.28Z" transform="translate(-196.54 -332.85)" fill="url(#gradient6)"></path><path d="M202.76,340.16c0-1.05,1.93-.69,3.07-2.17s1.75-4.63,2.51-4.63,1.21,2.76,2.52,4.5c1.11,1.49,3.17,1.42,3.17,2.3s-2.08.92-3.33,2.49-1.25,4.19-2.31,4.22-1.2-2.88-2.49-4.43S202.76,341.21,202.76,340.16Z" transform="translate(-196.54 -332.85)" fill="url(#gradient6)"></path><path d="M196.54,366c0-1.51,2.77-1,4.39-3.1,1.8-2.35,2.51-6.63,3.6-6.63s1.73,3.95,3.6,6.44c1.59,2.13,4.54,2,4.54,3.29s-3,1.32-4.76,3.56-1.79,6-3.31,6-1.72-4.12-3.57-6.33S196.54,367.54,196.54,366Z" transform="translate(-196.54 -332.85)" fill="url(#gradient6)"></path></svg>