<svg id="Layer_1" data-name="Layer 1" xmlns="http://www.w3.org/2000/svg" viewBox="0 0 87.52 87.49"><polygon points="0.47 29.05 41.5 0.72 74.23 12.22 87.06 58.72 63.81 75.56 47.77 86.78 14.11 76.68 0.47 29.05" fill="none" stroke="#fff" stroke-miterlimit="10" stroke-width="0.8"/><polygon points="33.72 40.84 41.5 0.72 79.23 30.34 63.81 75.56 33.72 40.84" fill="none" stroke="#fff" stroke-miterlimit="10" stroke-width="0.8"/><line x1="79.23" y1="30.34" x2="33.72" y2="40.84" fill="none" stroke="#fff" stroke-miterlimit="10" stroke-width="0.8"/><polyline points="63.81 75.56 14.11 76.68 33.72 40.84 0.47 29.05" fill="none" stroke="#fff" stroke-miterlimit="10" stroke-width="0.8"/><polyline points="23.28 15.08 24.02 12.79 25.54 14.66" fill="none" stroke="#fff" stroke-miterlimit="10" stroke-width="0.8"/><line x1="28.46" y1="18.28" x2="50.41" y2="45.42" fill="none" stroke="#fff" stroke-miterlimit="10" stroke-width="0.8" stroke-dasharray="4.65 4.65"/><polyline points="51.87 47.23 53.38 49.1 53.03 51.48" fill="none" stroke="#fff" stroke-miterlimit="10" stroke-width="0.8"/><line x1="52.33" y1="56.18" x2="48.48" y2="82.05" fill="none" stroke="#fff" stroke-miterlimit="10" stroke-width="0.8" stroke-dasharray="4.76 4.76"/><polyline points="48.13 84.41 47.77 86.78 45.82 85.38" fill="none" stroke="#fff" stroke-miterlimit="10" stroke-width="0.8"/><line x1="41.95" y1="82.61" x2="12.93" y2="61.78" fill="none" stroke="#fff" stroke-miterlimit="10" stroke-width="0.8" stroke-dasharray="4.76 4.76"/><polyline points="10.99 60.4 9.04 58.99 9.78 56.71" fill="none" stroke="#fff" stroke-miterlimit="10" stroke-width="0.8"/><line x1="11.28" y1="52.08" x2="22.53" y2="17.39" fill="none" stroke="#fff" stroke-miterlimit="10" stroke-width="0.8" stroke-dasharray="4.86 4.86"/><line x1="24.02" y1="12.79" x2="26.43" y2="12.76" fill="none" stroke="#fff" stroke-miterlimit="10" stroke-width="0.8"/><line x1="31.47" y1="12.7" x2="69.3" y2="12.27" fill="none" stroke="#fff" stroke-miterlimit="10" stroke-width="0.8" stroke-dasharray="5.04 5.04"/><polyline points="71.83 12.24 74.23 12.22 73.05 14.31" fill="none" stroke="#fff" stroke-miterlimit="10" stroke-width="0.8"/><line x1="70.41" y1="18.98" x2="55.89" y2="44.67" fill="none" stroke="#fff" stroke-miterlimit="10" stroke-width="0.8" stroke-dasharray="5.37 5.37"/><polyline points="54.57 47.01 53.38 49.1 55.7 49.76" fill="none" stroke="#fff" stroke-miterlimit="10" stroke-width="0.8"/><line x1="59.85" y1="50.95" x2="82.67" y2="57.47" fill="none" stroke="#fff" stroke-miterlimit="10" stroke-width="0.8" stroke-dasharray="4.32 4.32"/><line x1="84.75" y1="58.06" x2="87.06" y2="58.72" fill="none" stroke="#fff" stroke-miterlimit="10" stroke-width="0.8"/><line x1="9.04" y1="58.99" x2="11.39" y2="58.47" fill="none" stroke="#fff" stroke-miterlimit="10" stroke-width="0.8"/><line x1="15.79" y1="57.49" x2="48.83" y2="50.11" fill="none" stroke="#fff" stroke-miterlimit="10" stroke-width="0.8" stroke-dasharray="4.51 4.51"/><line x1="51.04" y1="49.62" x2="53.38" y2="49.1" fill="none" stroke="#fff" stroke-miterlimit="10" stroke-width="0.8"/></svg>