<svg id="Layer_2" data-name="Layer 2" xmlns="http://www.w3.org/2000/svg" viewBox="0 0 1947.21 1610.03"><g opacity="0.1"><path id="path2782" d="M1532.34,594.67" transform="translate(459.61 42.4)" fill="none" stroke="#fff" stroke-miterlimit="10" stroke-width="1.48"/><path id="path1873" d="M1081.22,1565.29c222.94-525.07-22.13-1131.52-547.39-1354.54" transform="translate(459.61 42.4)" fill="none" stroke="#fff" stroke-width="5.07"/><path id="path1875" d="M-303.47,548.78c137.79-324.53,512.66-475.87,837.3-338" transform="translate(459.61 42.4)" fill="none" stroke="#fff" stroke-width="5.07"/><path id="path2762" d="M-94.4,1066.14C-295,981-388.62,749.33-303.47,548.78" transform="translate(459.61 42.4)" fill="none" stroke="#fff" stroke-width="5.07"/><path id="path2764" d="M225.47,937C172.83,1061,29.62,1118.79-94.4,1066.14" transform="translate(459.61 42.4)" fill="none" stroke="#fff" stroke-width="5.07"/><path id="path2766" d="M225.47,937a150.65,150.65,0,0,0-79.83-197.53" transform="translate(459.61 42.4)" fill="none" stroke="#fff" stroke-width="5.07"/><path id="path2768" d="M23.34,788.84a93.26,93.26,0,0,1,122.3-49.37h0" transform="translate(459.61 42.4)" fill="none" stroke="#fff" stroke-width="5.07"/><path id="path2770" d="M23.34,788.84a57.39,57.39,0,0,0,30.41,75.25h0" transform="translate(459.61 42.4)" fill="none" stroke="#fff" stroke-width="5.07"/><path id="path2772" d="M100.79,845.1a35.87,35.87,0,0,1-47,19h0" transform="translate(459.61 42.4)" fill="none" stroke="#fff" stroke-width="5.07"/><path id="path2774" d="M100.79,845.1a21.52,21.52,0,0,0-11.41-28.22h0" transform="translate(459.61 42.4)" fill="none" stroke="#fff" stroke-width="5.07"/><path id="rect2784" d="M81,836.69l8.41-19.81" transform="translate(459.61 42.4)" fill="none" stroke="#fff" stroke-width="5.07"/><path id="rect2786" d="M67.77,831.08l33,14" transform="translate(459.61 42.4)" fill="none" stroke="#fff" stroke-width="5.07"/><path id="rect2788" d="M83.78,830.09l-13.21-5.61" transform="translate(459.61 42.4)" fill="none" stroke="#fff" stroke-width="5.07"/><path id="rect2790" d="M77.17,827.28l-2.8,6.61" transform="translate(459.61 42.4)" fill="none" stroke="#fff" stroke-width="5.07"/><path id="rect2794" d="M76.18,811.27,53.75,864.09" transform="translate(459.61 42.4)" fill="none" stroke="#fff" stroke-width="5.07"/><path id="rect2796" d="M109.2,825.3,23.34,788.84" transform="translate(459.61 42.4)" fill="none" stroke="#fff" stroke-width="5.07"/><path id="rect2798" d="M86.77,878.11l58.87-138.64" transform="translate(459.61 42.4)" fill="none" stroke="#fff" stroke-width="5.07"/><path id="rect2800" d="M.91,841.66,225.47,937" transform="translate(459.61 42.4)" fill="none" stroke="#fff" stroke-width="5.07"/><path id="rect2802" d="M59.78,703-94.4,1066.14" transform="translate(459.61 42.4)" fill="none" stroke="#fff" stroke-width="5.07"/><path id="rect2804" d="M284.48,798-303.67,548.3" transform="translate(459.61 42.4)" fill="none" stroke="#fff" stroke-width="5.07"/><path id="rect2806" d="M130.16,1161.48,533.83,210.75" transform="translate(459.61 42.4)" fill="none" stroke="#fff" stroke-width="5.07"/><path id="path922" d="M1081.22,1565.29l404-951.6" transform="translate(459.61 42.4)" fill="none" stroke="#fff" stroke-width="5.07"/><path id="path924" d="M-457.28,911-53.61-39.7" transform="translate(459.61 42.4)" fill="none" stroke="#fff" stroke-width="5.07"/><path id="path926" d="M1485.26,613.69-54.49-40.07" transform="translate(459.61 42.4)" fill="none" stroke="#fff" stroke-width="5.07"/><path id="path928" d="M1081.23,1565.29-458.53,911.53" transform="translate(459.61 42.4)" fill="none" stroke="#fff" stroke-width="5.07"/><path id="path1028" d="M70.57,824.48a14.35,14.35,0,0,1,18.81-7.6" transform="translate(459.61 42.4)" fill="none" stroke="#fff" stroke-width="5.07"/><path id="path1030" d="M70.57,824.48a7.17,7.17,0,0,0,3.8,9.41" transform="translate(459.61 42.4)" fill="none" stroke="#fff" stroke-width="5.07"/><path id="path1034" d="M83.77,830.07a7.17,7.17,0,0,1-9.41,3.8h0" transform="translate(459.61 42.4)" fill="none" stroke="#fff" stroke-width="5.07"/></g></svg>