<svg id="Layer_4" data-name="Layer 4" xmlns="http://www.w3.org/2000/svg" xmlns:xlink="http://www.w3.org/1999/xlink" viewBox="0 0 690.43 485.3"><defs><linearGradient id="linear-gradient" x1="-89.46" y1="196.1" x2="-88.42" y2="276.51" gradientUnits="userSpaceOnUse"><stop offset="0" stop-color="#fff"/><stop offset="1" stop-color="#a7a9ac"/></linearGradient><linearGradient id="linear-gradient-2" x1="0.86" y1="185.47" x2="0.86" y2="282.37" xlink:href="#linear-gradient"/><linearGradient id="linear-gradient-3" x1="93.88" y1="155.71" x2="93.88" y2="282.37" xlink:href="#linear-gradient"/><linearGradient id="linear-gradient-4" x1="194.03" y1="185.47" x2="194.03" y2="282.37" xlink:href="#linear-gradient"/><linearGradient id="linear-gradient-5" x1="333.9" y1="185.47" x2="333.9" y2="282.37" xlink:href="#linear-gradient"/><linearGradient id="linear-gradient-6" x1="424.84" y1="185.47" x2="424.84" y2="282.37" xlink:href="#linear-gradient"/><linearGradient id="linear-gradient-7" x1="517.86" y1="155.71" x2="517.86" y2="282.37" xlink:href="#linear-gradient"/><linearGradient id="linear-gradient-8" x1="14.02" y1="351.58" x2="14.02" y2="448.47" xlink:href="#linear-gradient"/><linearGradient id="linear-gradient-9" x1="103.02" y1="310.74" x2="103.02" y2="448.47" xlink:href="#linear-gradient"/><linearGradient id="linear-gradient-10" x1="228.49" y1="351.58" x2="228.49" y2="448.47" xlink:href="#linear-gradient"/><linearGradient id="linear-gradient-11" x1="326.7" y1="351.58" x2="326.7" y2="474.91" xlink:href="#linear-gradient"/><linearGradient id="linear-gradient-12" x1="413.35" y1="351.58" x2="413.35" y2="448.47" xlink:href="#linear-gradient"/><linearGradient id="linear-gradient-13" x1="-87.72" y1="517.68" x2="-87.72" y2="614.57" xlink:href="#linear-gradient"/><linearGradient id="linear-gradient-14" x1="-0.93" y1="517.68" x2="-0.93" y2="614.57" xlink:href="#linear-gradient"/><linearGradient id="linear-gradient-15" x1="90.14" y1="487.92" x2="90.14" y2="614.57" xlink:href="#linear-gradient"/><linearGradient id="linear-gradient-16" x1="183.09" y1="517.68" x2="183.09" y2="614.57" xlink:href="#linear-gradient"/><linearGradient id="linear-gradient-17" x1="317.29" y1="517.68" x2="317.29" y2="614.57" xlink:href="#linear-gradient"/><linearGradient id="linear-gradient-18" x1="414.04" y1="517.68" x2="414.04" y2="641.01" xlink:href="#linear-gradient"/><linearGradient id="linear-gradient-19" x1="509.55" y1="517.68" x2="509.55" y2="614.57" xlink:href="#linear-gradient"/></defs><path d="M-128.56,185.47h18.83V226h14.67l23.39-40.56h21.18l-28.37,48.31,30.72,48.59H-69.73L-95.2,242.09h-14.53v40.28h-18.83Z" transform="translate(128.56 -155.71)" fill="url(#linear-gradient)"/><path d="M-38.45,185.47h18.83V226h41V185.47H40.17v96.9H21.35V242.09h-41v40.28H-38.45Z" transform="translate(128.56 -155.71)" fill="url(#linear-gradient-2)"/><path d="M85.3,185.47h17.16l35.44,96.9H118.8l-7.89-21.46h-34L69,282.37H49.86Zm21.45,59.94L93.88,208.59H93.6L81.15,245.41ZM96.1,155.71h19.24l-13.71,23.4H85.57Z" transform="translate(128.56 -155.71)" fill="url(#linear-gradient-3)"/><path d="M147.59,185.47H165L193.82,248h.28L223,185.47h17.45v96.9H222.33v-59h-.27l-22.29,45.4H188.14L166,223.4h-.28v59H147.59Z" transform="translate(128.56 -155.71)" fill="url(#linear-gradient-4)"/><path d="M296.11,185.47h60.77l14.81,14.95v33.92l-14.95,15.09H314.93v32.94H296.11Zm52.18,48.18,4.85-4.85V206.1l-4.85-4.85H314.93v32.4Z" transform="translate(128.56 -155.71)" fill="url(#linear-gradient-5)"/><path d="M385.53,185.47h18.82V226h41V185.47h18.83v96.9H445.32V242.09h-41v40.28H385.53Z" transform="translate(128.56 -155.71)" fill="url(#linear-gradient-6)"/><path d="M509.27,185.47h17.17l35.43,96.9h-19.1l-7.89-21.46H500.83l-7.89,21.46h-19.1Zm21.46,59.94-12.87-36.82h-.28l-12.46,36.82Zm-10.66-89.7h19.24l-13.7,23.4H509.55Z" transform="translate(128.56 -155.71)" fill="url(#linear-gradient-7)"/><path d="M-29.59,351.58h19.38l24.09,74.47h.27l24.09-74.47H57.62L23.15,448.47H4.88Z" transform="translate(128.56 -155.71)" fill="url(#linear-gradient-8)"/><path d="M68,351.58h70V367.5H86.82V392H134v15.64H86.82v24.91H138v15.92H68Zm27.82-14.4,12.32-9.27V324l-1.66-1.66h-5.26L99.56,324v5.4H85.3V320l9.28-9.28h18.54L122.4,320v11.9L112,339.67v5.54H95.82Z" transform="translate(128.56 -155.71)" fill="url(#linear-gradient-9)"/><path d="M275.07,368.19v63.67l-16.61,16.61h-62V408.05H181.92V391.72h14.53V351.58h62Zm-18.82,6.5-7.06-7.05H215.27v24.08h21.32v16.33H215.27v24.37h33.92l7.06-7.06Z" transform="translate(128.56 -155.71)" fill="url(#linear-gradient-10)"/><path d="M291.68,351.58h70V367.5H310.5V392h47.21v15.64H310.5v24.91h51.22v15.92h-70Zm25.89,117.65v-8.58l5.67-5.67h9.69l5.68,5.67v8.58l-5.68,5.68h-9.69Z" transform="translate(128.56 -155.71)" fill="url(#linear-gradient-11)"/><path d="M375.56,351.58h60.77l14.81,14.95v33.91l-14.95,15.09h-41.8v32.94H375.56Zm52.19,48.17,4.84-4.85V372.2l-4.84-4.84H394.39v32.39Z" transform="translate(128.56 -155.71)" fill="url(#linear-gradient-12)"/><path d="M-97.14,533.6h-28.93V517.68h76.69V533.6H-78.31v81H-97.14Z" transform="translate(128.56 -155.71)" fill="url(#linear-gradient-13)"/><path d="M-41.77,598.66V533.6l15.92-15.92H24L39.9,533.6v65.06L24,614.57H-25.85ZM14,598.52l7.05-7.06V540.8l-7-7.06h-29.9l-7.06,7.06v50.66l7.06,7.06Z" transform="translate(128.56 -155.71)" fill="url(#linear-gradient-14)"/><path d="M81.56,517.68H98.73l35.43,96.89h-19.1l-7.89-21.45h-34l-7.89,21.45H46.13ZM103,577.62,90.14,540.8h-.27L77.41,577.62Zm-10.66-89.7H111.6L97.9,511.31H81.84Z" transform="translate(128.56 -155.71)" fill="url(#linear-gradient-15)"/><path d="M143.85,517.68h16.89l43.18,65.75h.28V517.68h18.13v96.89H205.45L162.26,549H162v65.61H143.85Z" transform="translate(128.56 -155.71)" fill="url(#linear-gradient-16)"/><path d="M278,517.68H296.8v40.56h41V517.68H356.6v96.89H337.77V574.3h-41v40.27H278Z" transform="translate(128.56 -155.71)" fill="url(#linear-gradient-17)"/><path d="M373.21,598.66V533.6l15.91-15.92H439l15.91,15.92v65.06L439,614.57H389.12Zm55.78-.14,7.06-7.06V540.8L429,533.74h-29.9L392,540.8v50.66l7.06,7.06Zm-25.47,36.82v-8.58l5.68-5.68h9.69l5.67,5.68v8.58L418.89,641H409.2Z" transform="translate(128.56 -155.71)" fill="url(#linear-gradient-18)"/><path d="M470.1,598.66V533.6L486,517.68h47.34L549,533.32v14.81H530.18v-7.89l-6.51-6.5H496l-7.06,7.06v50.66l7.06,7.06h27.68l6.51-6.51v-7.89H549v14.81l-15.64,15.64H486Z" transform="translate(128.56 -155.71)" fill="url(#linear-gradient-19)"/></svg>