<svg id="Layer_1" data-name="Layer 1" xmlns="http://www.w3.org/2000/svg" viewBox="0 0 101.4 99.15"><polygon points="0.61 49.07 10.98 18.8 36.44 0.58 67.87 0.58 90.42 20.28 100.79 49.07 91.09 79.62 66.24 98.58 34.65 98.58 10.98 79.62 0.61 49.07" fill="none" stroke="#fff" stroke-miterlimit="10" stroke-width="1.15"/><polygon points="29.39 30.65 28.24 67.49 60.22 77.5 80.21 49.58 61.63 20.28 29.39 30.65" fill="none" stroke="#fff" stroke-miterlimit="10" stroke-width="1.15"/><line x1="67.87" y1="0.58" x2="61.63" y2="20.28" fill="none" stroke="#fff" stroke-miterlimit="10" stroke-width="1.15"/><line x1="10.99" y1="18.8" x2="29.39" y2="30.65" fill="none" stroke="#fff" stroke-miterlimit="10" stroke-width="1.15"/><line x1="10.99" y1="79.62" x2="28.24" y2="67.49" fill="none" stroke="#fff" stroke-miterlimit="10" stroke-width="1.15"/><line x1="66.24" y1="98.58" x2="60.22" y2="77.5" fill="none" stroke="#fff" stroke-miterlimit="10" stroke-width="1.15"/><line x1="36.44" y1="0.58" x2="37.39" y2="3.9" fill="none" stroke="#fff" stroke-miterlimit="10" stroke-width="1.15"/><line x1="38.63" y1="8.25" x2="40.49" y2="14.78" fill="none" stroke="#fff" stroke-miterlimit="10" stroke-width="1.15" stroke-dasharray="4.53 4.53"/><polyline points="41.11 16.96 42.06 20.28 40.06 23.1" fill="none" stroke="#fff" stroke-miterlimit="10" stroke-width="1.15"/><line x1="36.95" y1="27.5" x2="26.04" y2="42.9" fill="none" stroke="#fff" stroke-miterlimit="10" stroke-width="1.15" stroke-dasharray="5.39 5.39"/><polyline points="24.48 45.1 22.48 47.92 24.3 50.86" fill="none" stroke="#fff" stroke-miterlimit="10" stroke-width="1.15"/><line x1="27.49" y1="56.02" x2="38.65" y2="74.1" fill="none" stroke="#fff" stroke-miterlimit="10" stroke-width="1.15" stroke-dasharray="6.07 6.07"/><polyline points="40.24 76.68 42.06 79.62 45.25 78.31" fill="none" stroke="#fff" stroke-miterlimit="10" stroke-width="1.15"/><line x1="50.42" y1="76.18" x2="68.52" y2="68.72" fill="none" stroke="#fff" stroke-miterlimit="10" stroke-width="1.15" stroke-dasharray="5.59 5.59"/><polyline points="71.1 67.66 74.3 66.34 74.3 62.89" fill="none" stroke="#fff" stroke-miterlimit="10" stroke-width="1.15"/><line x1="74.3" y1="57.36" x2="74.3" y2="38.02" fill="none" stroke="#fff" stroke-miterlimit="10" stroke-width="1.15" stroke-dasharray="5.53 5.53"/><polyline points="74.3 35.25 74.3 31.8 77.11 29.79" fill="none" stroke="#fff" stroke-miterlimit="10" stroke-width="1.15"/><line x1="80.61" y1="27.29" x2="85.86" y2="23.54" fill="none" stroke="#fff" stroke-miterlimit="10" stroke-width="1.15" stroke-dasharray="4.3 4.3"/><line x1="87.61" y1="22.29" x2="90.42" y2="20.28" fill="none" stroke="#fff" stroke-miterlimit="10" stroke-width="1.15"/><line x1="91.09" y1="79.62" x2="88.38" y2="77.48" fill="none" stroke="#fff" stroke-miterlimit="10" stroke-width="1.15"/><line x1="84.59" y1="74.48" x2="78.9" y2="69.98" fill="none" stroke="#fff" stroke-miterlimit="10" stroke-width="1.15" stroke-dasharray="4.83 4.83"/><line x1="77.01" y1="68.48" x2="74.3" y2="66.34" fill="none" stroke="#fff" stroke-miterlimit="10" stroke-width="1.15"/><line x1="34.65" y1="98.58" x2="35.91" y2="95.36" fill="none" stroke="#fff" stroke-miterlimit="10" stroke-width="1.15"/><line x1="37.54" y1="91.19" x2="39.98" y2="84.93" fill="none" stroke="#fff" stroke-miterlimit="10" stroke-width="1.15" stroke-dasharray="4.48 4.48"/><line x1="40.8" y1="82.84" x2="42.06" y2="79.62" fill="none" stroke="#fff" stroke-miterlimit="10" stroke-width="1.15"/><line x1="0.61" y1="49.07" x2="4.06" y2="48.89" fill="none" stroke="#fff" stroke-miterlimit="10" stroke-width="1.15"/><line x1="9.05" y1="48.62" x2="16.54" y2="48.23" fill="none" stroke="#fff" stroke-miterlimit="10" stroke-width="1.15" stroke-dasharray="5 5"/><line x1="19.04" y1="48.1" x2="22.48" y2="47.92" fill="none" stroke="#fff" stroke-miterlimit="10" stroke-width="1.15"/><line x1="42.06" y1="20.28" x2="45.31" y2="21.45" fill="none" stroke="#fff" stroke-miterlimit="10" stroke-width="1.15"/><line x1="50.46" y1="23.28" x2="68.47" y2="29.72" fill="none" stroke="#fff" stroke-miterlimit="10" stroke-width="1.15" stroke-dasharray="5.47 5.47"/><line x1="71.04" y1="30.64" x2="74.3" y2="31.8" fill="none" stroke="#fff" stroke-miterlimit="10" stroke-width="1.15"/><line x1="80.21" y1="49.58" x2="100.79" y2="49.07" fill="none" stroke="#fff" stroke-miterlimit="10" stroke-width="1.15"/></svg>