<svg xmlns="http://www.w3.org/2000/svg" viewBox="0 0 153.89 723.14">
<g id="Layer_1" data-name="Layer 1">
<polyline points="108.58 3.99 96.37 87.11 0.86 167.34 9.54 234.68 153.03 273.23 7.87 363.87 149.28 446.65 55.01 546.29 99.07 660.55 34.08 719.53" fill="none" stroke="#7da6ff" stroke-linejoin="round" stroke-width="1.25" opacity="0.28" style="isolation:isolate"/>
<polyline points="111.34 1.54 76.84 59.2 34.91 170.09 73.63 281.61 10.91 430.36 40.91 447.36 109.75 360.8 135.49 530.28 74.47 607.55 34.08 719.53" fill="none" stroke="#567db8" stroke-linejoin="round" stroke-width="1.25"/>
<polyline points="26.08 186.54 15.65 170.05 21.98 159.12" fill="none" stroke="#0003ab" stroke-linejoin="round" stroke-width="1.25" opacity="0.28" style="isolation:isolate"/>
<polyline points="51.75 307.53 58.47 281.61 45.76 251.02" fill="none" stroke="#0003ab" stroke-linejoin="round" stroke-width="1.25" opacity="0.28" style="isolation:isolate"/>
<polyline points="76.61 593.15 64.01 607.55 60.95 619.5" fill="none" stroke="#0003ab" stroke-linejoin="round" stroke-width="1.25" opacity="0.28" style="isolation:isolate"/>
<polyline points="71.84 398.5 52.11 423.96 61.98 381.74" fill="none" stroke="#0003ab" stroke-linejoin="round" stroke-width="1.25" opacity="0.28" style="isolation:isolate"/>
<polyline points="78.83 36.72 62.13 56.04 58.73 70.67" fill="none" stroke="#0003ab" stroke-linejoin="round" stroke-width="1.25" opacity="0.28" style="isolation:isolate"/>
<polyline points="87.84 405.91 104.9 383.45 104.9 413.56" fill="none" stroke="#0003ab" stroke-linejoin="round" stroke-width="1.25" opacity="0.28" style="isolation:isolate"/>
<polyline points="94.65 569.66 103.71 558.42 102.58 543.43" fill="none" stroke="#0003ab" stroke-linejoin="round" stroke-width="1.25" opacity="0.28" style="isolation:isolate"/>
</g>
</svg>