<svg width="40" height="40" x="-20" y="-5" viewBox="0 0 64 64" key="icon1">
    <path
        fill="white"
        d="M61.127 48.467a2.916 2.916 0 0 0-1.047-.686v-7.607c0-.882-.385-1.714-1.057-2.285a2.976 2.976 0 0 0-2.409-.674l-.918.135.685-6.119a3.002 3.002 0 0 0-.914-2.517 2.918 2.918 0 0 0-2.485-.79c-10.949 1.695-18.58 9.551-20.981 12.335-2.401-2.784-10.032-10.64-20.981-12.335a2.923 2.923 0 0 0-2.485.79 2.996 2.996 0 0 0-.914 2.517l.685 6.119-.902-.132a2.987 2.987 0 0 0-2.426.672 2.99 2.99 0 0 0-1.057 2.285v7.609a2.999 2.999 0 0 0-1.92 2.791c0 .812.317 1.567.873 2.108a2.944 2.944 0 0 0 2.127.892h17.078c.482 3.393 3.407 6.01 6.931 6.01h5.98c3.521 0 6.443-2.613 6.929-6.01H59c1.654 0 3-1.346 3-3 0-.812-.317-1.567-.873-2.107zm-7.839-18.565a.929.929 0 0 1 .795.257c.232.223.346.532.31.85l-.743 6.642-19.106 2.801c3.019-3.171 9.768-9.16 18.745-10.549zM9.607 31.009a1.011 1.011 0 0 1 .31-.85c.128-.123.4-.32.795-.257 8.959 1.386 15.715 7.377 18.741 10.549l-19.102-2.8-.743-6.642zM6.27 39.415c.227-.192.516-.268.824-.22l24.76 3.63c.099.006.192.006.291 0l24.776-3.632a.99.99 0 0 1 .808.223.983.983 0 0 1 .351.76v7.4H36.99a1 1 0 0 0-1 1v4.01c0 .551-.448 1-1 1h-5.98c-.552 0-1-.449-1-1v-4.01a1 1 0 0 0-1-1H5.92v-7.4c0-.298.125-.568.351-.76zm52.729 12.16h-18.01c-.553 0-1 .458-1 1.01 0 2.757-2.243 5-5 5h-5.98c-2.757 0-5-2.243-5-5.01a1 1 0 0 0-1-1H5a.974.974 0 0 1-.713-.307.953.953 0 0 1-.287-.693c0-.551.448-1 1-1h21.01v3.01c0 1.654 1.346 3 3 3h5.98c1.654 0 3-1.346 3-3v-3.01H59c.267 0 .513.102.713.307.186.18.287.426.287.693 0 .551-.448 1-1 1z"
    ></path>
    <path
        fill="white"
        d="M33.44 30.541c2.071 0 3.756-1.685 3.756-3.755s-1.685-3.755-3.756-3.755-3.755 1.685-3.755 3.755 1.685 3.755 3.755 3.755zm0-5.511c.968 0 1.756.788 1.756 1.755s-.788 1.755-1.756 1.755-1.755-.788-1.755-1.755.787-1.755 1.755-1.755z"
    ></path>
    <path
        fill="white"
        d="M13.65 18.38a5.657 5.657 0 0 1 5.65 5.65 1 1 0 1 0 2 0 5.656 5.656 0 0 1 5.649-5.65 1 1 0 1 0 0-2c-3.115 0-5.649-2.539-5.649-5.66a1 1 0 1 0-2 0c0 3.121-2.535 5.66-5.65 5.66a1 1 0 1 0 0 2zm6.65-3.876a7.719 7.719 0 0 0 2.872 2.876 7.708 7.708 0 0 0-2.872 2.872 7.711 7.711 0 0 0-2.873-2.872 7.714 7.714 0 0 0 2.873-2.876z"
    ></path>
    <path
        fill="white"
        d="M36.196 13.075a5.656 5.656 0 0 1 5.649 5.65 1 1 0 1 0 2 0 5.657 5.657 0 0 1 5.65-5.65 1 1 0 1 0 0-2c-3.115 0-5.65-2.539-5.65-5.66a1 1 0 1 0-2 0c0 3.121-2.534 5.66-5.649 5.66a1 1 0 1 0 0 2zm6.649-3.876a7.714 7.714 0 0 0 2.873 2.876 7.704 7.704 0 0 0-2.873 2.872 7.716 7.716 0 0 0-2.872-2.872 7.719 7.719 0 0 0 2.872-2.876z"
    ></path>
</svg>