<svg xmlns="http://www.w3.org/2000/svg" viewBox="0 0 184.48 46.54"><g id="Layer_1" data-name="Layer 1"><polygon points="9.78 40.65 27.75 22.02 27.68 20.4 12.3 4.88 13.34 3.45 42.23 3.45 46.19 6.86 46.05 2.22 44.34 1 7.29 1 5.93 2.65 22.63 19.36 22.71 21.19 1.35 42.54 3.87 45.54 43.72 45.54 46.02 43.58 46.02 37.61 41 42.54 11.21 42.54 9.78 40.65" fill="#fff" stroke="#fff" stroke-miterlimit="10" stroke-width="2"/><path d="M289.83,376.66V360.29h-4.32v-3.12h4.42v-7.78h3.45v7.78h7.49v3.12h-7.49v15.26l2.4,2.4h5.09v3.12h-6.62Z" transform="translate(-235.94 -335.54)" fill="#fff" stroke="#fff" stroke-miterlimit="10" stroke-width="2"/><path d="M306.39,346.8h3.55v15.36l5-5h7.44l4.42,4.41v19.49h-3.55V362.69l-2.4-2.35h-4.95l-5.95,6v14.78h-3.55Z" transform="translate(-235.94 -335.54)" fill="#fff" stroke="#fff" stroke-miterlimit="10" stroke-width="2"/><path d="M333.27,376.66V361.58l4.41-4.41h12.05l4.47,4.41v8.6H336.82v5.37l2.4,2.35h9l2.4-2.35v-1.82h3.55v2.93l-4.42,4.41H337.68Zm17.37-9.56v-4.41l-2.4-2.35h-9l-2.4,2.35v4.41Z" transform="translate(-235.94 -335.54)" fill="#fff" stroke="#fff" stroke-miterlimit="10" stroke-width="2"/><path d="M360.68,357.17h3.45v4.61l4.61-4.61h5.71l3.75,3.74,3.74-3.74h7.54l4.41,4.41v19.49h-3.55V362.69l-2.4-2.35h-5.28l-3.36,3.36v17.37h-3.46V362.69l-2.4-2.35h-4l-5.18,5.18v15.55h-3.55Z" transform="translate(-235.94 -335.54)" fill="#fff" stroke="#fff" stroke-miterlimit="10" stroke-width="2"/><path d="M399.65,377.14v-3h3.55v2l1.92,1.87H414l1.92-1.87v-3.7L414,370.51H403.64l-3.8-3.79V361.1l3.94-3.93H415L419,361.1v3H415.4v-2l-1.92-1.87h-8.16l-1.92,1.87v3.51l1.92,1.92h10.17l3.94,3.93v5.67l-3.94,3.93h-11.9Z" transform="translate(-235.94 -335.54)" fill="#fff" stroke="#fff" stroke-miterlimit="10" stroke-width="2"/></g></svg>