<svg
    xmlns="http://www.w3.org/2000/svg" 
    version="1.1" 
    xmlns:xlink="http://www.w3.org/1999/xlink" 
    width="30" height="30" 
    x="0" y="0" viewBox="-1 -2 26 26" 
    xml:space="preserve" class=""
    stroke="black"
    stroke-width="0.1"
    transform="translate(-2)"
>
    <path
        d="M21 0H10a3 3 0 0 0-3 3v5a1 1 0 0 0 2 0V3a1 1 0 0 1 1-1h11a1 1 0 0 1 1 1v18a1 1 0 0 1-1 1H10a1 1 0 0 1-1-1v-5a1 1 0 0 0-2 0v5a3 3 0 0 0 3 3h11a3 3 0 0 0 3-3V3a3 3 0 0 0-3-3z"
    />
    <path
        d="M4.707 8.293a1 1 0 0 0-1.414 0l-3 3a1.016 1.016 0 0 0 0 1.414l3 3a1 1 0 1 0 1.414-1.414L3.414 13H16a1 1 0 0 0 0-2H3.414l1.293-1.293a1 1 0 0 0 0-1.414z"
    />
</svg>