<svg id="Layer_1" data-name="Layer 1" xmlns="http://www.w3.org/2000/svg" viewBox="0 0 319.05 305.07"><path d="M334.83,385.19A94.94,94.94,0,1,1,296.19,345" transform="translate(-112.47 -310.55)" fill="none" stroke="white" stroke-linecap="round" stroke-miterlimit="10" stroke-width="14"/><circle cx="207.17" cy="52.83" r="7" fill="white"/><circle cx="137.53" cy="117.45" r="63.77" fill="none" stroke="white" stroke-miterlimit="10" stroke-width="11.88"/><path d="M367.56,587.37c3.78,6,.93,14.57-6.37,19.19s-16.28,3.51-20.06-2.48l-3.05-4.81L286.6,517.86,313,501.14l51.49,81.42Z" transform="translate(-112.47 -310.55)" fill="none" stroke="white" stroke-miterlimit="10" stroke-width="12.43"/><rect x="288.41" y="529.19" width="53.74" height="9.53" rx="4.77" transform="translate(-349.05 -59.37) rotate(-32.31)" fill="white" stroke="white" stroke-miterlimit="10" stroke-width="6"/><line x1="5" y1="244" x2="20.83" y2="244" fill="#fff" stroke="white" stroke-linecap="round" stroke-miterlimit="10" stroke-width="10"/><line x1="38.04" y1="244" x2="53.87" y2="244" fill="#fff" stroke="white" stroke-linecap="round" stroke-miterlimit="10" stroke-width="10"/><line x1="29.68" y1="253.96" x2="29.68" y2="269.79" fill="#fff" stroke="white" stroke-linecap="round" stroke-miterlimit="10" stroke-width="10"/><line x1="29.68" y1="218.66" x2="29.68" y2="234.49" fill="#fff" stroke="white" stroke-linecap="round" stroke-miterlimit="10" stroke-width="10"/><line x1="265.18" y1="30.34" x2="281.01" y2="30.34" fill="#fff" stroke="white" stroke-linecap="round" stroke-miterlimit="10" stroke-width="10"/><line x1="298.22" y1="30.34" x2="314.05" y2="30.34" fill="#fff" stroke="white" stroke-linecap="round" stroke-miterlimit="10" stroke-width="10"/><line x1="289.86" y1="40.3" x2="289.86" y2="56.13" fill="#fff" stroke="white" stroke-linecap="round" stroke-miterlimit="10" stroke-width="10"/><line x1="289.86" y1="5" x2="289.86" y2="20.83" fill="#fff" stroke="white" stroke-linecap="round" stroke-miterlimit="10" stroke-width="10"/></svg>