<svg id="Layer_1" data-name="Layer 1" xmlns="http://www.w3.org/2000/svg" viewBox="0 0 104.41 102.86"><path d="M315.91,425.11l-31.4-22.57v13.27s-73.2,3-29.79-17.47v8.71h5.74a4,4,0,0,0,4.05-4.05V382.24a4,4,0,0,1,4-4h43.32a4,4,0,0,1,4,4v68a4,4,0,0,1-4,4H268.55a4,4,0,0,1-4-4v-5.19a4,4,0,0,0-4.05-4.05h-5.74v12.35A12.26,12.26,0,0,0,267,465.6h47.49a12.26,12.26,0,0,0,12.26-12.25V380.83a12.26,12.26,0,0,0-12.26-12.25H267a12.26,12.26,0,0,0-12.25,12.25v10.32s-76.36,31.05,29.79,46.75v11l31.4-22.75" transform="translate(-226.64 -364.24)"/><path d="M315.91,425.11l-31.4-22.57v13.27s-73.2,3-29.79-17.47v8.71h5.74a4,4,0,0,0,4.05-4.05V382.24a4,4,0,0,1,4-4h43.32a4,4,0,0,1,4,4v68a4,4,0,0,1-4,4H268.55a4,4,0,0,1-4-4v-5.19a4,4,0,0,0-4.05-4.05h-5.74v12.35A12.26,12.26,0,0,0,267,465.6h47.49a12.26,12.26,0,0,0,12.26-12.25V380.83a12.26,12.26,0,0,0-12.26-12.25H267a12.26,12.26,0,0,0-12.25,12.25v10.32s-76.36,31.05,29.79,46.75v11l31.4-22.75" transform="translate(-226.64 -364.24)" fill="none" stroke="#000" stroke-miterlimit="10" stroke-width="3"/><path d="M318.74,422.28l-31.4-22.58V413s-73.19,3-29.79-17.47v8.7h5.75a4,4,0,0,0,4-4V379.4a4,4,0,0,1,4-4H314.7a4,4,0,0,1,4,4v68a4,4,0,0,1-4,4.05H271.38a4,4,0,0,1-4-4.05v-5.19a4,4,0,0,0-4-4h-5.75v12.34a12.26,12.26,0,0,0,12.26,12.26H317.3a12.25,12.25,0,0,0,12.25-12.26V378a12.25,12.25,0,0,0-12.25-12.26H269.81A12.26,12.26,0,0,0,257.55,378v10.31s-76.36,31.05,29.79,46.75v11l31.4-22.74" transform="translate(-226.64 -364.24)" fill="#fff"/><path d="M318.74,422.28l-31.4-22.58V413s-73.19,3-29.79-17.47v8.7h5.75a4,4,0,0,0,4-4V379.4a4,4,0,0,1,4-4H314.7a4,4,0,0,1,4,4v68a4,4,0,0,1-4,4.05H271.38a4,4,0,0,1-4-4.05v-5.19a4,4,0,0,0-4-4h-5.75v12.34a12.26,12.26,0,0,0,12.26,12.26H317.3a12.25,12.25,0,0,0,12.25-12.26V378a12.25,12.25,0,0,0-12.25-12.26H269.81A12.26,12.26,0,0,0,257.55,378v10.31s-76.36,31.05,29.79,46.75v11l31.4-22.74" transform="translate(-226.64 -364.24)" fill="none" stroke="#231f20" stroke-miterlimit="10" stroke-width="3"/></svg>