<svg viewBox="0 0 100 100"  xmlns="http://www.w3.org/2000/svg" xmlns:xlink="http://www.w3.org/1999/xlink" ><defs><linearGradient x1="100%" x2="0%" y1="0%" y2="0%" id="gradient6" ><stop offset="0%" stop-color="#2e5bff"></stop><stop offset="100%" stop-color="#75cfff"></stop></linearGradient></defs><path d="M12.811 45.999a2 2 0 0 0 2-2V16.494a2 2 0 0 0-4 0v27.505a2 2 0 0 0 2 2zM52.774 55.067c.487 0 .976-.177 1.36-.534l29.54-27.427a2 2 0 0 0-2.721-2.932l-29.54 27.427a2 2 0 0 0 1.361 3.466zM92.022 90.517H59.124a2 2 0 0 0 0 4h32.898a2 2 0 0 0 0-4zM81.742 63.364l-23.603 7.051a2 2 0 0 0 1.144 3.833l23.603-7.051a2 2 0 0 0-1.144-3.833zM33.656 45.887a1.996 1.996 0 0 0 2.547-1.231l7.933-22.78a2 2 0 0 0-3.777-1.315l-7.933 22.78a2 2 0 0 0 1.23 2.546z" fill="url(#gradient6)"></path><path d="M9.811 42.499a1.5 1.5 0 0 0 1.5-1.5V13.493c-.034-1.972-2.967-1.971-3 0v27.505a1.5 1.5 0 0 0 1.5 1.5zM49.774 51.567a1.5 1.5 0 0 0 1.021-.401l29.54-27.427c1.414-1.352-.563-3.522-2.041-2.198l-29.54 27.427c-1.006.869-.29 2.649 1.021 2.599zM54.624 89.517a1.5 1.5 0 0 0 1.5 1.5h32.898c1.972-.034 1.971-2.967 0-3H56.124a1.5 1.5 0 0 0-1.5 1.5zM56.142 70.769l23.603-7.051c1.873-.593 1.045-3.407-.859-2.874l-23.602 7.051c-1.881.596-1.033 3.412.859 2.874zM30.821 42.415a1.503 1.503 0 0 0 1.91-.923l7.933-22.78a1.502 1.502 0 0 0-2.834-.987l-7.933 22.78a1.502 1.502 0 0 0 .924 1.91z" fill="#000000"></path></svg>