<svg id="Layer_1" data-name="Layer 1" xmlns="http://www.w3.org/2000/svg" viewBox="0 0 477.6 487.76"><path d="M529.24,228.77c-117.79-49.48-201,6.76-216,18.14a1.47,1.47,0,0,1-2.06-.29,1.52,1.52,0,0,1-.29-1,59.2,59.2,0,0,1,6.24-23.3,1.3,1.3,0,0,0-.56-1.75,1.35,1.35,0,0,0-.84-.12C155,250,167.93,379,156.58,375.23c-8.48-2.84-7-25.08-5.66-36.34a2,2,0,0,0-1.79-2.26,2.08,2.08,0,0,0-1.76.67c-26.88,30.29-42.79,60.64-51.21,88l-6,26.75c-10,64,16.59,109.17,16.59,109.17l16.57,8h0s50.51,15.9,120.29-19.45a.64.64,0,0,0,.28-.87.66.66,0,0,0-.57-.36c-6.86,0-17.62-6-26.55-15a.77.77,0,0,1,.52-1.3c12.49-.42,89.22-5.91,131.06-77.46a1.47,1.47,0,0,0-1.82-2.1c-5.22,2.15-41.15,6.09-58.91-3.23a1.41,1.41,0,0,1-.61-1.9,1.43,1.43,0,0,1,.81-.7c16.68-5.43,92.78-14.77,128.26-74.15a.55.55,0,0,0-.18-.74.59.59,0,0,0-.37-.07c-4.92.84-24.42,3.79-35.3-.36a.53.53,0,0,1-.3-.7v0C389.46,349,417.78,316,447.86,288l20-17.65c23.84-19.78,47-34.65,60.64-36.26a2.76,2.76,0,0,0,2.43-2.77,2.8,2.8,0,0,0-1.71-2.58Z" transform="translate(-59.35 -176.11)" fill="#fdf8c1"/><path d="M522.46,387.82a.32.32,0,0,1,.38.21.3.3,0,0,1-.21.37h0c-29.17,13.38-27.48,37-26.34,48.47V437a.8.8,0,0,1-1.48.35c-5.08-10.21-18.66-30-46.6-26.84a.3.3,0,0,1-.35-.25.32.32,0,0,1,.18-.33c25.18-12.56,25.79-36.82,24.53-48.16v-.08a.8.8,0,0,1,.81-.76.79.79,0,0,1,.66.39c5.26,10.26,16.68,31.21,48.42,26.55Zm-35.24-108a.23.23,0,0,1,.2.25.21.21,0,0,1-.2.19c-23.06,2.95-27,19.63-28.65,27.82a.58.58,0,0,1-.58.43h0a.55.55,0,0,1-.52-.45c-.82-5.09-3.12-13.48-9.59-20A31.43,31.43,0,0,0,431,279.4a.21.21,0,0,1-.18-.24A.23.23,0,0,1,431,279c20.11-3.25,25.76-19.89,27.33-28a.59.59,0,0,1,.71-.41.6.6,0,0,1,.41.42c.85,4.93,2.4,13,8.41,19.41,4.05,4.33,10.11,7.95,19.34,9.41Z" transform="translate(-59.35 -176.11)" fill="#b3d998"/><path d="M335.75,240.48a1.3,1.3,0,0,1,1.52,1,1.25,1.25,0,0,1-.12.83,59.2,59.2,0,0,0-6.24,23.3,1.48,1.48,0,0,0,1.39,1.56,1.5,1.5,0,0,0,1-.3c13.61-10.31,83.19-57.46,183.78-29.4a43.83,43.83,0,0,1,11.48-3.39,2.76,2.76,0,0,0,2.43-2.77,2.8,2.8,0,0,0-1.71-2.58c-111.63-46.89-192.16,1.17-213.06,16q9.33-2.39,19.57-4.29ZM110.14,472.07l6-26.75c6.92-22.5,18.9-47,37.86-71.82-5.57-6.13-4.27-24.65-3.1-34.61a2,2,0,0,0-1.79-2.26,2.08,2.08,0,0,0-1.76.67c-26.88,30.29-42.79,60.64-51.21,88l-6,26.75c-10,64,16.59,109.17,16.59,109.17l13.74,6.6A183.35,183.35,0,0,1,110.14,472.07ZM167.37,357.3a2,2,0,0,1,2.88-.16,2,2,0,0,1,.67,1.75c-1.33,11.26-2.82,33.5,5.66,36.34,10.73,3.6-.23-111.53,134.4-149.06a1.81,1.81,0,0,1-.07-.52,59.2,59.2,0,0,1,6.24-23.3,1.3,1.3,0,0,0-.56-1.75,1.35,1.35,0,0,0-.84-.12c-128.64,23.64-146,111-153.7,143Q164.65,360.4,167.37,357.3Z" transform="translate(-59.35 -176.11)" fill="#d3cc9b"/><path d="M345.31,312.85a4.34,4.34,0,0,1-2.11,3.73C240.65,378.66,166,490.9,123.3,569.2c-23.22,42.58-37,75.12-40.68,84.12A7.31,7.31,0,0,1,69,648a846.72,846.72,0,0,1,37.74-86.8c43.07-85.82,119-201.42,232.43-252.37a4.35,4.35,0,0,1,6.15,4Z" transform="translate(-59.35 -176.11)" fill="#c0b36d"/><path d="M96.16,425.32c5.27,1.51,11.75,1.6,19.71-1a.22.22,0,0,1,.28.13.21.21,0,0,1-.09.26c-19.19,13.13-15.09,29.78-12.87,37.83a.78.78,0,0,1,0,.14.58.58,0,0,1-1,.35,39.36,39.36,0,0,0-12-11c-6.18-3.5-14.33-5.45-24.5-2.48a.21.21,0,0,1-.27-.14.22.22,0,0,1,.08-.25c16.43-12.06,13.9-29.45,11.61-37.39a.59.59,0,0,1,0-.14.58.58,0,0,1,1-.36c3.21,4.27,8.74,11.36,18.1,14Z" transform="translate(-59.35 -176.11)" fill="#b3d998"/><path d="M114.14,197.84a6,6,0,0,0,7.35-4.22h0l2.69-10a6,6,0,0,0-11.59-3.12l-2.68,10A6,6,0,0,0,114.14,197.84Zm-2.09,7.74a6,6,0,0,0-7.35,4.24l-2.69,10a6,6,0,1,0,11.58,3.15v0l2.68-10A6,6,0,0,0,112.05,205.58Zm4.9-2.82a6,6,0,0,0,4.23,7.35h0l10,2.69a6,6,0,1,0,3.13-11.58l-10-2.69a6,6,0,0,0-7.36,4.22Zm-25-.55,10,2.69A6,6,0,0,0,105,193.31l-10-2.69a6,6,0,0,0-3.13,11.59ZM367.56,524.07a6,6,0,0,0-7.36,4.22h0l-2.48,9.13a6,6,0,1,0,11.56,3.23l0-.08,2.48-9.13A6,6,0,0,0,367.56,524.07Zm-7.29,26.83a6,6,0,0,0-7.36,4.22l-2.48,9.14A6,6,0,0,0,362,567.48l0-.08,2.48-9.13a6,6,0,0,0-4.22-7.37Zm8.19,5.13,9.2,2.46a6,6,0,0,0,3.11-11.59l-9.21-2.46A6,6,0,0,0,368.35,556Zm-14.72-16.37-9.2-2.46a6,6,0,1,0-3.22,11.56l.12,0,9.2,2.46a6,6,0,0,0,3.1-11.59ZM525.13,393.85a6.3,6.3,0,0,0-3.54-12C493.46,386,484,367.46,479.38,358.53a6.8,6.8,0,0,0-12.78,3.86c1.25,11.15.14,31.46-21.23,42.13a6.3,6.3,0,0,0,3.52,11.9c23.73-2.71,35.6,13.59,40.55,23.55a6.72,6.72,0,0,0,6,3.74,6.94,6.94,0,0,0,1.7-.21,6.74,6.74,0,0,0,5.11-7.22c-1-9.91-3-30.54,22.86-42.43Zm-34.82,26.36a48.18,48.18,0,0,0-25.5-15,48.74,48.74,0,0,0,13.27-26.63,44.07,44.07,0,0,0,25.8,15,44.13,44.13,0,0,0-13.57,26.58Zm-423,35.14a25.33,25.33,0,0,1,16.25.29C76.28,510.3,94.35,550.49,100,561.4A850.37,850.37,0,0,0,63.36,646a13.31,13.31,0,0,0,24.81,9.62c3.4-8.28,16.35-38.92,38.21-79.44a133.38,133.38,0,0,0,27.69,2.67c22.25,0,54.49-4.6,92.24-23.72a6.65,6.65,0,0,0-3-12.59c-2.85,0-7.62-1.87-12.89-5.39,28-3.59,87.43-18.4,123.06-79.32a7.47,7.47,0,0,0-9.27-10.69c-3.5,1.34-22.33,3.49-38.29,1.36,29.3-7.14,85.82-23.42,115.26-72.71a6.54,6.54,0,0,0-6.71-9.8c-7.89,1.35-18.38,2.27-26.15,1.32,10-18.43,32.11-44.86,58.84-70.38A33.45,33.45,0,0,1,451.53,309a6.51,6.51,0,0,0,6.12,5.49H458a6.59,6.59,0,0,0,6.44-5.22c2.2-10.7,6.57-20.91,23.53-23.08h0a6.22,6.22,0,0,0,.17-12.31,31.52,31.52,0,0,1-10.73-3.52c22.32-17.84,41.41-29,51.78-30.26a8.81,8.81,0,0,0,2.35-16.85c-106-44.52-184.82-5.5-213.15,12.79a51.31,51.31,0,0,1,4.06-10.93,7.29,7.29,0,0,0-7.81-10.51c-55.24,10.15-97,33.16-124.22,68.4-22.4,29-29.43,58.78-33.63,76.56-.18.77-.37,1.56-.56,2.35-.54-4.85-.58-12.12.62-22.3a8,8,0,0,0-14-6.28c-23.4,26.36-40.32,54.55-50.38,83.87a36.41,36.41,0,0,1-9.65-9.48,6.59,6.59,0,0,0-8.39-1.8,6.52,6.52,0,0,0-3.17,7.56c2.13,7.4,3.75,21.25-9.4,30.9a6.21,6.21,0,0,0,5.42,11Zm9.75,195.7a1.33,1.33,0,0,1-.61.67,1.22,1.22,0,0,1-1.47-.19,1.19,1.19,0,0,1-.36-1.42c21-57.26,97.86-241.94,241.22-322.73C170.59,430.39,86.61,627.77,77.07,651.05Zm381-359.32a36.24,36.24,0,0,0-11.23-12.32,36.31,36.31,0,0,0,11.62-12.06,33.8,33.8,0,0,0,11.38,12.4,33.61,33.61,0,0,0-11.77,12ZM109,461c-2.91-10.54-3.65-21.62,10.47-31.29a6.22,6.22,0,0,0-5.45-11,32.76,32.76,0,0,1-9.9,1.78c8.4-24.17,21.75-47.59,39.84-69.8-.69,17.73,2.86,27.7,10.72,30.33a7.33,7.33,0,0,0,6-.54c4.13-2.3,5.3-7.24,7.86-18.08,7.84-33.17,25.94-109.79,139.76-134.2a65.74,65.74,0,0,0-3.34,17.23,7.47,7.47,0,0,0,12,6.37c14.59-11.05,91.33-62.68,201.06-21-15.91,5.9-35.46,20.17-48.91,31A38.8,38.8,0,0,1,465.37,250a6.57,6.57,0,0,0-12.91-.12c-1.47,7.56-6.32,20.62-22.41,23.22a6.22,6.22,0,0,0-.17,12.25,27.7,27.7,0,0,1,8.76,3.19c-25.19,24.11-53.9,56.38-64.21,79.9a6.54,6.54,0,0,0,3.35,8.62l.3.12c7.49,2.86,17.82,2.89,26.33,2.19-30.39,40.72-81.66,52.86-107.23,58.92-4.79,1.13-8.57,2-11.23,2.9a7.41,7.41,0,0,0-1.13,13.62c14.27,7.49,38.43,7.3,52.91,5.61-16.65,24.59-39.53,42.81-68.15,54.24a163.39,163.39,0,0,1-52.5,11.63,6.76,6.76,0,0,0-4.58,11.52,69.76,69.76,0,0,0,16.26,12.36c-45.73,19.92-81.51,17.37-96.29,14.93C175.39,487.84,248,381.25,346.31,321.73a10.36,10.36,0,0,0-9.6-18.32c-110.18,49.47-185.38,159-229.77,244.32a177.77,177.77,0,0,1-12.19-84.32,35.9,35.9,0,0,1,2.6,3.17,6.49,6.49,0,0,0,5.25,2.68A6.58,6.58,0,0,0,109,461ZM84.61,426.34a33.65,33.65,0,0,0,15.77,5.85,33.6,33.6,0,0,0-5,16.05,36.12,36.12,0,0,0-15.59-5.86,36.32,36.32,0,0,0,4.86-16Z" transform="translate(-59.35 -176.11)" fill="#294268"/></svg>