<svg id="Layer_1" data-name="Layer 1" xmlns="http://www.w3.org/2000/svg" viewBox="0 0 224.88 263.12"><circle cx="219.09" cy="70.67" r="5.45" fill="none" stroke="#fff" stroke-miterlimit="10" stroke-width="0.68"/><path d="M407.26,135.83q10.22-.39,11,12l-.1.11q-1.11-12.4,9.05-13.6v-.1q-10.22.38-11-12l.11.09q1.13,12.4-9,13.6Z" transform="translate(-262.5 -122.24)" fill="#fff"/><circle cx="5.42" cy="75.27" r="5.1" fill="none" stroke="#fff" stroke-miterlimit="10" stroke-width="0.64"/><circle cx="124.6" cy="260.95" r="2.04" fill="none" stroke="#fff" stroke-miterlimit="10" stroke-width="0.26"/><circle cx="95.07" cy="91.2" r="3.4" fill="#fff"/><circle cx="181.46" cy="184.18" r="3.4" fill="#fff"/><circle cx="45.58" cy="95.72" r="1.36" fill="#fff"/><circle cx="106.73" cy="232.98" r="1.36" fill="#fff"/><line x1="14.35" y1="80.39" x2="41.4" y2="94.67" fill="none" stroke="#fff" stroke-miterlimit="10" stroke-width="0.34"/><line x1="53.35" y1="95.11" x2="83.15" y2="92.81" fill="none" stroke="#fff" stroke-miterlimit="10" stroke-width="0.34"/><line x1="102.63" y1="83.1" x2="144.83" y2="19.76" fill="none" stroke="#fff" stroke-miterlimit="10" stroke-width="0.34"/><line x1="168.22" y1="22.04" x2="213.55" y2="60.86" fill="none" stroke="#fff" stroke-miterlimit="10" stroke-width="0.34"/><line x1="215.24" y1="82.57" x2="191.06" y2="175.93" fill="none" stroke="#fff" stroke-miterlimit="10" stroke-width="0.34"/><line x1="156.95" y1="35.2" x2="179.74" y2="170.73" fill="none" stroke="#fff" stroke-miterlimit="10" stroke-width="0.34"/><path d="M371.73,352.12c2.62-1.4,57.31-35.67,57.31-35.67" transform="translate(-262.5 -122.24)" fill="none" stroke="#fff" stroke-miterlimit="10" stroke-width="0.34"/><line x1="109.14" y1="237.62" x2="121.56" y2="256.87" fill="none" stroke="#fff" stroke-miterlimit="10" stroke-width="0.34"/></svg>