<svg id="Layer_1" data-name="Layer 1" xmlns="http://www.w3.org/2000/svg" viewBox="0 0 139.9 118.5"><path d="M386.72,612.89,328.87,519a12,12,0,0,0-20.48,0l-57.85,93.93c-5,8.18.75,18.81,10.24,18.81h115.7C386,631.7,391.76,621.07,386.72,612.89Z" transform="translate(-248.68 -513.2)" fill="#ff1726"/><circle cx="70" cy="100.51" r="8" fill="#e6e7e8"/><path d="M316.39,594.62a3,3,0,0,1-3-2.71l-4.1-46.36a3,3,0,0,1,3-3.24h13.14a3,3,0,0,1,3,3.24l-4.1,46.36a3,3,0,0,1-3,2.71Z" transform="translate(-248.68 -513.2)" fill="#e6e7e8"/></svg>