<svg xmlns="http://www.w3.org/2000/svg" viewBox="0 0 269.91 1100.15">
<g id="Layer_1" data-name="Layer 1">
<polyline points="215.28 5 84.83 53.61 32.65 162.89 42.35 342.58 226.5 352.96 91.37 504.46 269.05 597.61 143.43 730.37 126.61 881.36 16.31 960.63" fill="none" stroke="#7da6ff" stroke-linejoin="round" stroke-width="1.72" opacity="0.28" style="isolation:isolate"/>
<polyline points="218.49 4.52 121.64 81.34 18.16 231.06 111.89 380.42 30.65 605.59 225.03 491.53 260.85 710.69 112.18 832.98 12.96 982.63" fill="none" stroke="#567db8" stroke-linejoin="round" stroke-width="1.72"/>
<polyline points="73.79 517.87 55.91 570.29 113.37 537.06" fill="none" stroke="#0003ab" stroke-linejoin="round" stroke-width="1.72" opacity="0.28" style="isolation:isolate"/>
<polyline points="81.16 424.8 97.5 387.57 73.5 346.92" fill="none" stroke="#0003ab" stroke-linejoin="round" stroke-width="1.72" opacity="0.28" style="isolation:isolate"/>
<polyline points="18.98 254.06 0.86 232.03 13.5 217.51" fill="none" stroke="#0003ab" stroke-linejoin="round" stroke-width="1.72" opacity="0.28" style="isolation:isolate"/>
<polyline points="220.68 564.71 212.1 508.13 173.74 531.09" fill="none" stroke="#0003ab" stroke-linejoin="round" stroke-width="1.72" opacity="0.28" style="isolation:isolate"/>
<polyline points="122.01 795.4 101.42 806.63 90.18 827.91" fill="none" transform='translate(0 20)' stroke="#0003ab" stroke-linejoin="round" stroke-width="1.72" opacity="0.28" style="isolation:isolate"/>
<polyline points="163.98 750.43 185.98 734.03 182.92 707.18" fill="none" transform='translate(60 -25)' stroke="#0003ab" stroke-linejoin="round" stroke-width="1.72" opacity="0.28" style="isolation:isolate"/>
<polyline points="134.53 60.89 107.33 81.34 98.78 99.44" fill="none" stroke="#0003ab" stroke-linejoin="round" stroke-width="1.72" opacity="0.28" style="isolation:isolate"/>
</g>
</svg>