<?xml version="1.0" encoding="utf-8"?>
<!-- Generator: Adobe Illustrator 24.3.0, SVG Export Plug-In . SVG Version: 6.00 Build 0)  -->
<svg version="1.1" id="Layer_1" xmlns="http://www.w3.org/2000/svg" xmlns:xlink="http://www.w3.org/1999/xlink" x="0px" y="0px"
	 viewBox="0 0 287 799" style="enable-background:new 0 0 287 799;" xml:space="preserve">
<style type="text/css">
	.st0{opacity:0.28;fill:none;stroke:#c680ff;stroke-width:1.72;stroke-linejoin:round;enable-background:new    ;}
	.st1{fill:none;stroke:#8a56b8;stroke-width:1.72;stroke-linejoin:round;}
	.st2{opacity:0.28;fill:none;stroke:#8200ad;stroke-width:1.72;stroke-linejoin:round;enable-background:new    ;}
</style>
<g id="Layer_1-2_1_">
	<polyline class="st0" points="41,79.2 128.9,69.6 43.1,190.7 181.4,334.5 98.6,477.9 113.1,557.3 224.3,700.3 146.9,727.9 	"/>
	<polyline class="st1" points="34.9,84.6 163.2,120.4 28.3,227.6 130.4,246.8 256.4,327.7 41.4,484.5 256.1,605.4 146.9,727.9 	"/>
	<polyline class="st2" points="203.3,593.3 234.9,610.5 212.9,634.4 	"/>
	<polyline class="st2" points="179.7,363.4 228.5,329.6 199.4,309.6 	"/>
	<polyline class="st2" points="151.3,278.5 121.5,258.2 77.2,254.2 	"/>
	<polyline class="st2" points="103.8,455.5 66.3,484.6 100.5,501.2 	"/>
	<polyline class="st2" points="109.6,116.3 139.8,124 103.3,150.2 	"/>
</g>
</svg>
