<?xml version="1.0" encoding="utf-8"?>
<!-- Generator: Adobe Illustrator 24.3.0, SVG Export Plug-In . SVG Version: 6.00 Build 0)  -->
<svg version="1.1" id="Layer_1" xmlns="http://www.w3.org/2000/svg" xmlns:xlink="http://www.w3.org/1999/xlink" x="0px" y="0px"
	 viewBox="0 0 224 955.2" style="enable-background:new 0 0 224 955.2;" xml:space="preserve">
<style type="text/css">
	.st0{opacity:0.28;fill:none;stroke:#c680ff;stroke-width:1.72;stroke-linejoin:round;enable-background:new    ;}
	.st1{fill:none;stroke:#8a56b8;stroke-width:1.72;stroke-linejoin:round;}
	.st2{opacity:0.28;fill:none;stroke:#8200ad;stroke-width:1.72;stroke-linejoin:round;enable-background:new    ;}
</style>
<g id="Layer_1-2_1_">
	<polyline class="st0" points="47.9,74 152,62.6 50.4,206.1 214.3,376.5 164.2,533.8 58,645.1 193.5,778.9 129.9,842.7 	"/>
	<polyline class="st1" points="49.6,80.4 176.8,206.2 97.6,268.9 178.2,368.9 202.4,427.6 53.6,550.5 177.2,697 122.3,845.3 	"/>
	<polyline class="st2" points="129.5,666.4 160.5,702.3 150.6,727.9 	"/>
	<polyline class="st2" points="152,451.1 184.9,424.8 176.1,401.9 	"/>
	<polyline class="st2" points="135.7,297 117.6,271.9 131.1,262.1 	"/>
	<polyline class="st2" points="105.7,531.9 77.9,554.4 100.1,584.2 	"/>
	<polyline class="st2" points="131.9,184.9 156.3,204.7 132.4,220.8 	"/>
</g>
</svg>
