<?xml version="1.0" encoding="utf-8"?>
<!-- Generator: Adobe Illustrator 24.3.0, SVG Export Plug-In . SVG Version: 6.00 Build 0)  -->
<svg version="1.1" id="Layer_1" xmlns="http://www.w3.org/2000/svg" xmlns:xlink="http://www.w3.org/1999/xlink" x="0px" y="0px"
	 viewBox="0 0 269.9 1100.2" style="enable-background:new 0 0 269.9 1100.2;" xml:space="preserve">
<style type="text/css">
	.st0{opacity:0.28;fill:none;stroke:#ff8080;stroke-width:1.72;stroke-linejoin:round;enable-background:new    ;}
	.st1{fill:none;stroke:#e37f7f;stroke-width:1.72;stroke-linejoin:round;}
	.st2{opacity:0.28;fill:none;stroke:#ad0000;stroke-width:1.72;stroke-linejoin:round;enable-background:new    ;}
</style>
<g id="Layer_1-2">
	<polyline class="st0" points="60.3,4.5 84.8,53.6 32.6,162.9 257.9,261.4 116.6,424.8 142.6,551.7 39.6,622.7 163.9,653.3 
		209.1,886.2 123.9,950.6 	"/>
	<polyline class="st1" points="60.3,4.5 138.5,99.4 28.2,240 228.1,316.1 266,445.1 201.4,486 8.9,559.2 142.3,672.1 215.3,799.1 
		93.4,977.1 	"/>
	<polyline class="st2" points="64.3,551.2 32.6,563.7 59,583.9 	"/>
	<polyline class="st2" points="227.1,365.3 216.9,325.8 169.4,312.4 	"/>
	<polyline class="st2" points="55.2,263.2 14.6,246.6 23.1,224.6 	"/>
	<polyline class="st2" points="241.6,411.2 250,439.7 238.3,447.5 	"/>
	<polyline class="st2" points="189.7,773.8 204,798.3 183.9,827.9 	"/>
	<polyline class="st2" points="167.2,687.7 160.1,664.2 145.6,652 	"/>
	<polyline class="st2" points="103,76.7 124.2,98 103,119.4 	"/>
</g>
</svg>
