<svg id="Layer_3" data-name="Layer 3" xmlns="http://www.w3.org/2000/svg" viewBox="0 0 262.58 260.2"><path d="M270.78,445.32C291.86,525.15,421,466.4,385.45,353c0,0,38.42,46.25,30.53,88.62C399.07,532.41,265.33,520.52,270.78,445.32Z" transform="translate(-154.47 -290.84)" fill="#231f20"/><path d="M303.88,438.07c81.18-15.05,32.25-148.22-83.47-121.25,0,0,49-34.86,90.66-23.82C400.31,316.65,378.46,449.13,303.88,438.07Z" transform="translate(-154.47 -290.84)" fill="#231f20"/><path d="M302.27,401.91c-8.94-82.08-145.39-43.25-127.15,74.17,0,0-31.1-51.47-17-92.19C188.4,296.66,318.87,328.36,302.27,401.91Z" transform="translate(-154.47 -290.84)" fill="#231f20"/><path d="M274.36,403c-82.52,2.78-54,141.75,64.45,132.34,0,0-53.65,27.16-93.19,10C160.89,508.68,202.26,380.94,274.36,403Z" transform="translate(-154.47 -290.84)" fill="#231f20"/></svg>