<svg xmlns="http://www.w3.org/2000/svg" version="1.1" xmlns:xlink="http://www.w3.org/1999/xlink" x="0" y="0" viewBox="0 0 512 512" style="enable-background:new 0 0 512 512" xml:space="preserve" class="">
<g>
<path fill="#f1d1cb" d="M173.096 424.512a1.876 1.876 0 0 0 .577-3.663c-11.189-3.585-23.11-6.755-39.949-25.875-18.689-21.22-43.216-18.68-57.85-14.438a710.772 710.772 0 0 0-18.623 43.976z" opacity="1" data-original="#f1d1cb" class="">
</path>
<path fill="#f0c5b7" d="M173.673 420.849c-11.189-3.585-23.11-6.755-39.949-25.875-18.573-21.089-42.907-18.71-57.572-14.516 10.559 3.138 21.16 9.24 30.624 19.986 10.616 12.054 19.744 19.282 27.994 24.068h38.327a1.876 1.876 0 0 0 .576-3.663z" opacity="1" data-original="#f0b5cc" class="">
</path>
<path fill="#ead7d1" d="M488.117.006c-24.844 1.813-122.403 11.238-208.22 51.575a11.81 11.81 0 0 0-5.217 4.84l-39.306 68.804c-1.038 1.817-3.798 1.247-4.014-.835-.825-7.941-1.707-22.728.2-41.224.187-1.811-1.808-3.033-3.32-2.018-57.589 38.663-122.041 85.765-158.56 150.378a10.783 10.783 0 0 0-1.371 5.42c.225 22.455 2.693 51.52 12.55 69.923.559 1.043-.762 2.08-1.658 1.308l-27.23-23.461c-1.259-1.085-3.217-.392-3.532 1.24-11.697 60.748 23.026 99.478 23.026 99.478l17.882-7.791 16.887.964 63.866-12.54c44.448-8.728 84.577-29.773 116.528-59.68 1.435-1.343.483-3.746-1.482-3.749-38.182-.066-65.766-6.902-77.997-10.635-2.089-.638-2-3.622.12-4.15l115.429-28.718c2.202-.548 4.114-1.932 5.282-3.877a237.406 237.406 0 0 0 21.626-46.966l12.783-38.245a284.817 284.817 0 0 1 75.233-117.408l52.122-48.911c1.479-1.389.398-3.869-1.627-3.722z" opacity="1" data-original="#f6f1f1">
</path>
<path fill="#f1d1cb" d="M488.117.006c-10.162.742-32.496 2.759-61.211 7.642L382.829 49.01a288.857 288.857 0 0 0-76.297 119.068l-12.964 38.786a240.804 240.804 0 0 1-21.932 47.63c-1.184 1.973-3.124 3.377-5.357 3.932L149.218 287.55c-2.15.535-2.241 3.562-.122 4.209 12.403 3.786 40.377 10.719 79.099 10.785 1.993.003 2.958 2.441 1.503 3.803-32.403 30.33-73.099 51.673-118.176 60.524l-46.842 9.198c3.861 6.106 6.782 9.366 6.782 9.366l98.635-19.367c44.45-8.728 84.581-29.775 116.533-59.685 1.433-1.341.482-3.741-1.48-3.745-38.186-.065-65.772-6.901-78.003-10.635-2.089-.638-2-3.622.12-4.15l115.429-28.718c2.202-.548 4.114-1.932 5.282-3.877a237.406 237.406 0 0 0 21.626-46.966l12.783-38.245A284.827 284.827 0 0 1 437.62 52.639l52.121-48.91c1.482-1.39.401-3.87-1.624-3.723z" opacity="1" data-original="#f1d1cb" class="">
</path>
<path fill="#f1d1cb" d="m437.621 52.638 52.121-48.91c1.012-.949.826-2.407-.039-3.188L414.84 37.765a759.65 759.65 0 0 0-233.185 179.64c-44.053 50.287-80.181 106.866-107.823 167.564l15.515-7.326 16.887.964 63.866-12.54c44.45-8.728 84.581-29.775 116.533-59.685 1.433-1.341.482-3.741-1.48-3.745-38.186-.065-65.772-6.901-78.003-10.635-2.089-.638-2-3.622.12-4.15l115.429-28.718c2.202-.548 4.114-1.932 5.282-3.877a237.406 237.406 0 0 0 21.626-46.966l12.783-38.245a284.812 284.812 0 0 1 75.231-117.408z" opacity="1" data-original="#f1d1cb" class="">
</path>
<path fill="#ebb4a3" d="M489.704.539 414.84 37.765a759.68 759.68 0 0 0-45.152 24.404 288.838 288.838 0 0 0-63.155 105.909l-12.964 38.786a240.804 240.804 0 0 1-21.932 47.63c-1.184 1.973-3.124 3.377-5.357 3.932L149.219 287.55c-2.15.535-2.241 3.562-.122 4.209 12.403 3.786 40.377 10.719 79.099 10.785 1.993.003 2.958 2.441 1.503 3.803-32.403 30.33-73.099 51.673-118.176 60.524l-32.192 6.321a711.709 711.709 0 0 0-5.5 11.778l96.267-18.902c44.45-8.728 84.581-29.775 116.533-59.685 1.433-1.341.482-3.741-1.48-3.745-38.186-.065-65.772-6.901-78.003-10.635-2.089-.638-2-3.622.12-4.15l115.429-28.718c2.202-.548 4.114-1.932 5.282-3.877a237.406 237.406 0 0 0 21.626-46.966l12.783-38.245a284.827 284.827 0 0 1 75.233-117.408l52.121-48.91c1.012-.95.827-2.408-.038-3.19z" opacity="1" data-original="#f0b5cc" class="">
</path>
<path fill="#d5632aba" d="M484.18 511.998h-94.137c-14.142 0-28.168-4.664-39.493-13.132-13.564-10.141-31.372-13.378-47.638-8.66l-44.406 12.883a75.771 75.771 0 0 1-61.859-8.897l-27.376-17.472c-22.804-14.554-51.532-15.207-74.974-1.706l-60.749 34.99a7.478 7.478 0 1 1-7.465-12.961l60.749-34.99c28.291-16.295 62.964-15.505 90.486 2.059l27.376 17.472a60.8 60.8 0 0 0 49.644 7.141l44.406-12.883c20.746-6.02 43.462-1.889 60.762 11.046 8.757 6.548 19.602 10.154 30.536 10.154h94.137a7.479 7.479 0 0 1 .001 14.956z" opacity="1" data-original="#335995">
</path>
<path fill="#ebb79c" d="M344.883 77.253a7.48 7.48 0 0 0-10.348-2.188 767.775 767.775 0 0 0-145.707 123.166 766.225 766.225 0 0 0-7.374 8.133v-22.405a7.479 7.479 0 0 0-14.958 0v39.649c-51.493 61.396-91.919 131.606-120.253 208.916L20.8 501.946a7.48 7.48 0 0 0 7.021 10.055 7.481 7.481 0 0 0 7.022-4.907l25.443-69.422c13.576-37.043 29.991-72.414 49.114-105.923h35.899a7.479 7.479 0 0 0 0-14.958h-27.116c20.281-33.518 43.354-65.073 69.097-94.459 4.108-4.69 8.331-9.39 12.549-13.968a752.183 752.183 0 0 1 53.142-52.21h38.534a7.479 7.479 0 0 0 0-14.958h-21.209a752.28 752.28 0 0 1 72.4-53.598 7.477 7.477 0 0 0 2.187-10.345z" opacity="1" data-original="#f0b5cc" class="">
</path>
</g>
</svg>