<svg id="Layer_1" data-name="Layer 1" xmlns="http://www.w3.org/2000/svg" viewBox="0 0 141.87 141.89"><path d="M48.16,134.61a16.62,16.62,0,0,0,16.6,16.6,16.64,16.64,0,0,0-16.66,16.6h0m0-33.26a16.62,16.62,0,0,1-16.55,16.69h0a16.61,16.61,0,0,1,16.63,16.59h0" transform="translate(-28.77 -28.76)" fill="none" stroke="#fff" stroke-linecap="round" stroke-linejoin="round" stroke-width="5.54"/><path d="M151.25,31.53a16.63,16.63,0,0,0,16.62,16.62,16.63,16.63,0,0,0-16.62,16.63m0-33.25a16.62,16.62,0,0,1-16.62,16.62h0a16.62,16.62,0,0,1,16.63,16.61v0h0" transform="translate(-28.77 -28.76)" fill="none" stroke="#fff" stroke-linecap="round" stroke-linejoin="round" stroke-width="5.54"/><path d="M99.71,74.76a25,25,0,0,0,25,24.94,25,25,0,0,0-25,24.88h0v0h0m0-49.88A25,25,0,0,1,74.77,99.69h0a24.92,24.92,0,0,1,24.94,24.9h0" transform="translate(-28.77 -28.76)" fill="none" stroke="#fff" stroke-linecap="round" stroke-linejoin="round" stroke-width="5.54"/><path d="M58.1,49.82V66.44" transform="translate(-28.77 -28.76)" fill="none" stroke="#fff" stroke-linecap="round" stroke-linejoin="round" stroke-width="5.54"/><path d="M49.82,58.13H66.45" transform="translate(-28.77 -28.76)" fill="none" stroke="#fff" stroke-linecap="round" stroke-linejoin="round" stroke-width="5.54"/><path d="M141.28,133v16.63" transform="translate(-28.77 -28.76)" fill="none" stroke="#fff" stroke-linecap="round" stroke-linejoin="round" stroke-width="5.54"/><path d="M133,141.25H149.6" transform="translate(-28.77 -28.76)" fill="none" stroke="#fff" stroke-linecap="round" stroke-linejoin="round" stroke-width="5.54"/><path d="M99.71,151.25v16.63" transform="translate(-28.77 -28.76)" fill="none" stroke="#fff" stroke-linecap="round" stroke-linejoin="round" stroke-width="5.54"/><path d="M91.39,159.55H108" transform="translate(-28.77 -28.76)" fill="none" stroke="#fff" stroke-linecap="round" stroke-linejoin="round" stroke-width="5.54"/><path d="M99.71,31.53V48.15" transform="translate(-28.77 -28.76)" fill="none" stroke="#fff" stroke-linecap="round" stroke-linejoin="round" stroke-width="5.54"/><path d="M91.39,39.84H108" transform="translate(-28.77 -28.76)" fill="none" stroke="#fff" stroke-linecap="round" stroke-linejoin="round" stroke-width="5.54"/><circle cx="45.99" cy="100.03" r="2.69" fill="#fff"/><circle cx="11.08" cy="73.69" r="2.69" fill="#fff"/><circle cx="95.88" cy="100.03" r="2.69" fill="#fff"/><circle cx="123.5" cy="73.69" r="2.69" fill="#fff"/><circle cx="45.99" cy="46.06" r="2.69" fill="#fff"/><circle cx="95.88" cy="46.06" r="2.69" fill="#fff"/></svg>