<svg id="Layer_1" data-name="Layer 1" xmlns="http://www.w3.org/2000/svg" viewBox="0 0 135.74 125.05"><path d="M165.57,137.1a6.61,6.61,0,0,0-2.38-1.56V118.28a6.77,6.77,0,0,0-6.76-6.78h0a5.55,5.55,0,0,0-1,.08l-2.08.31L154.88,98a6.73,6.73,0,0,0-2.07-5.69,6.56,6.56,0,0,0-5.62-1.79c-24.79,3.83-42.07,21.62-47.51,27.92-5.43-6.3-22.71-24.09-47.5-27.92a6.55,6.55,0,0,0-5.62,1.79A6.7,6.7,0,0,0,44.49,98L46,111.89l-2-.3a6.77,6.77,0,0,0-7.77,5.6,7.88,7.88,0,0,0-.08,1.09v17.23a6.78,6.78,0,0,0,2.44,13.11H77.19a15.88,15.88,0,0,0,15.69,13.61h13.54a15.89,15.89,0,0,0,15.69-13.61h38.68a6.79,6.79,0,0,0,6.79-6.79h0a6.58,6.58,0,0,0-2-4.77Zm-17.75-42a2,2,0,0,1,1.8.59,2.29,2.29,0,0,1,.7,1.92l-1.68,15L105.38,119c6.84-7.18,22.12-20.74,42.44-23.88Zm-98.9,2.51a2.24,2.24,0,0,1,.71-1.92,2,2,0,0,1,1.79-.59C71.71,98.24,87,111.81,93.86,119l-43.25-6.34-1.68-15Zm-7.55,19a2.27,2.27,0,0,1,1.86-.5l56.06,8.22a3.64,3.64,0,0,0,.66,0L156,116.1a2.23,2.23,0,0,1,2.59,1.81v0h0a2.54,2.54,0,0,1,0,.39V135.1H110.92a2.26,2.26,0,0,0-2.26,2.26h0v9.08a2.28,2.28,0,0,1-2.24,2.3H92.85a2.27,2.27,0,0,1-2.26-2.27v-9.08a2.27,2.27,0,0,0-2.27-2.26H40.58V118.29a2.15,2.15,0,0,1,.79-1.73ZM160.75,144.1H120a2.3,2.3,0,0,0-2.26,2.29,11.35,11.35,0,0,1-11.32,11.35H92.85A11.36,11.36,0,0,1,81.53,146.4a2.27,2.27,0,0,0-2.26-2.27H38.49a2.29,2.29,0,0,1-2.3-2.28h0a2.26,2.26,0,0,1,2.26-2.26H86v6.81a6.81,6.81,0,0,0,6.79,6.79h13.54a6.79,6.79,0,0,0,6.79-6.79h0v-6.81h47.55a2.15,2.15,0,0,1,1.61.69,2.1,2.1,0,0,1,.62,1.56,2.27,2.27,0,0,1-2.23,2.27Z" transform="translate(-31.83 -37.18)" fill="#fff"/><path d="M102.88,96.47a8.5,8.5,0,1,0-8.5-8.5h0A8.52,8.52,0,0,0,102.88,96.47Zm0-12.48a4,4,0,1,1-4,4A4,4,0,0,1,102.88,84Z" transform="translate(-31.83 -37.18)" fill="#fff"/><path d="M58.08,68.94a12.82,12.82,0,0,1,12.79,12.8,2.27,2.27,0,0,0,4.53,0,12.79,12.79,0,0,1,12.79-12.8,2.27,2.27,0,0,0,0-4.53A12.81,12.81,0,0,1,75.39,51.6a2.27,2.27,0,0,0-4.53-.3,1.5,1.5,0,0,0,0,.3A12.83,12.83,0,0,1,58.07,64.41a2.27,2.27,0,0,0-.3,4.53Zm15-8.78a17.58,17.58,0,0,0,6.5,6.51,17.43,17.43,0,0,0-6.5,6.51,17.5,17.5,0,0,0-6.5-6.51,17.42,17.42,0,0,0,6.55-6.51Z" transform="translate(-31.83 -37.18)" fill="#fff"/><path d="M109.12,56.93a12.8,12.8,0,0,1,12.79,12.81h0a2.27,2.27,0,0,0,4.53,0,12.79,12.79,0,0,1,12.75-12.81,2.27,2.27,0,0,0,.33-4.53h-.33A12.84,12.84,0,0,1,126.4,39.59a2.27,2.27,0,0,0-4.53-.3,1.5,1.5,0,0,0,0,.3A12.83,12.83,0,0,1,109.08,52.4a2.27,2.27,0,0,0,0,4.53Zm15.07-8.78a17.43,17.43,0,0,0,6.5,6.51,17.43,17.43,0,0,0-6.5,6.51,17.53,17.53,0,0,0-6.51-6.51A17.68,17.68,0,0,0,124.19,48.15Z" transform="translate(-31.83 -37.18)" fill="#fff"/></svg>