<svg id="Layer_1" data-name="Layer 1" xmlns="http://www.w3.org/2000/svg" viewBox="0 0 156.14 119.37"><path d="M86.21,144.76a10.43,10.43,0,1,0-19.13,8.32v.06a10.41,10.41,0,0,0,19.09-8.32h0Zm-4.13,6.35a5.73,5.73,0,0,1-3.1,3.22,5.84,5.84,0,1,1,3.1-3.22Zm89.56-77a2.29,2.29,0,1,0-3.7,2.7,27.28,27.28,0,0,1-19.86,43.32,5,5,0,0,0-4.36,3.68l-.92,3.33a5.83,5.83,0,0,1-11.27-3l.89-3.33a16.62,16.62,0,0,1,14.72-12.31,15.62,15.62,0,1,0-8.48-29.38,36.93,36.93,0,0,0,.1-6.22,35.62,35.62,0,0,0-1-6,27.29,27.29,0,0,1,17,.17,26.74,26.74,0,0,1,6.09,3,2.3,2.3,0,0,0,3.17-.66h0a2.3,2.3,0,0,0-.66-3.17h0a31.64,31.64,0,0,0-27-3.67,35.5,35.5,0,0,0-67.7,5.25A31.84,31.84,0,0,0,22.8,104.34a30.8,30.8,0,0,0,1.5,4.16,10.41,10.41,0,0,0,19.26-7.91h0l-.18-.41a11.17,11.17,0,0,1-.52-1.47,11,11,0,1,1,18.19,5.13,21.19,21.19,0,0,0-4.91,24L57.49,131a10.41,10.41,0,0,0,19.09-8.32h0l-1.39-3.14a.39.39,0,0,1,0-.43,32.51,32.51,0,0,0,2.68-2.83,2.29,2.29,0,0,0-3.52-2.9,27.54,27.54,0,0,1-2.29,2.42,5,5,0,0,0-1.11,5.6l1.38,3.16a5.84,5.84,0,0,1-10.52,5.09h0a3.93,3.93,0,0,1-.18-.43L60.3,126a16.63,16.63,0,0,1,3.84-18.8A15.63,15.63,0,1,0,38.43,100a14,14,0,0,0,.73,2.06,5.84,5.84,0,0,1-10.7,4.66A27.28,27.28,0,0,1,68,72.74c-.08,1-.12,1.91-.12,2.86A11.43,11.43,0,0,0,79.3,87h0a27.45,27.45,0,0,1,0,17.79,2.3,2.3,0,0,0,4.14,2,1,1,0,0,0,.09-.22l.09-.24a32,32,0,0,0,.24-20.23,11.43,11.43,0,0,0,6.87-10.47,13.2,13.2,0,0,1,.12-1.78,12.69,12.69,0,1,1,16.76,13.73,23.54,23.54,0,0,0-15.63,22.2v3.87a11.41,11.41,0,0,0,22.82,0v-3.9a.68.68,0,0,1,.42-.68,35.68,35.68,0,0,0,22-22.88,11.18,11.18,0,0,1,12.31-3.61A11.06,11.06,0,0,1,146.8,104,21.2,21.2,0,0,0,128,119.65l-.89,3.33A10.41,10.41,0,0,0,147,129.17c0-.08.05-.16.07-.24s.09-.31.13-.47v-.12l.89-3.32a.38.38,0,0,1,.3-.31,31.87,31.87,0,0,0,23.25-50.57Zm-58,30.57a5.26,5.26,0,0,0-3.47,5v3.87a6.84,6.84,0,0,1-13.67,0v-3.86a19,19,0,0,1,12.58-17.88,17.27,17.27,0,0,0-4.58-33.47h-1.14A17.34,17.34,0,0,0,86.23,73.19a17.53,17.53,0,0,0-.17,2.41,6.83,6.83,0,0,1-13.66,0h0a30.92,30.92,0,1,1,41.23,29.17Zm20,34.17a10.41,10.41,0,0,0-12.75,7.35v.08A10.43,10.43,0,0,0,128.3,159a10.7,10.7,0,0,0,2.7.35,10.45,10.45,0,0,0,10.06-7.72v-.06a10.42,10.42,0,0,0-7.36-12.75Zm3.9,10v.07a6.57,6.57,0,1,1,0-.06Z" transform="translate(-21.63 -40.02)" fill="#fff"/><path d="M103.37,129.22A11.41,11.41,0,0,0,92,140.63h0v.07a11.41,11.41,0,1,0,22.82,0v-.07A11.42,11.42,0,0,0,103.37,129.22Zm6.83,11.48a6.84,6.84,0,0,1-13.67.58h0v-.06a4.51,4.51,0,0,1,0-.52v-.07a6.84,6.84,0,0,1,13.67-.57Z" transform="translate(-21.63 -40.02)" fill="#fff"/></svg>